<svg width="40" height="39" viewBox="0 0 40 39" fill="none" xmlns="http://www.w3.org/2000/svg">
<path d="M16.867 0.5C16.6038 3.37556 17.9728 5.62145 19.333 7.6161C20.6933 9.60835 22.0184 11.3766 22.1588 13.4008C22.2642 14.785 21.7552 16.1612 21.1496 17.6414C20.5441 19.1296 19.8508 20.7138 19.7894 22.514L21.369 22.562C21.4129 21.0818 22.0184 19.6496 22.6327 18.1454C23.2383 16.6412 23.8613 15.065 23.7385 13.3048C23.563 10.7845 22.0009 8.80025 20.667 6.852C19.3418 4.90456 18.2185 3.02672 18.4467 0.621615L16.867 0.5ZM28.6441 1.2617C27.0031 2.1066 25.2128 3.13953 24.072 4.27328C23.3787 4.96376 22.9487 5.66385 22.8521 6.34234C22.7644 6.94481 22.9223 7.57609 23.4928 8.32019C25.2655 8.26418 26.5906 7.21605 27.5033 5.66065C28.2843 4.33728 28.6705 2.68828 28.6441 1.2617ZM10.3115 6.8192C10.215 6.82 10.1185 6.8224 10.0307 6.8248C9.5305 6.8392 9.06538 6.88321 8.63537 6.94401C9.55682 8.28818 11.312 9.80838 13.2163 10.6885C14.366 11.2166 15.5507 11.5206 16.6213 11.4966C17.5691 11.4806 18.4116 11.2166 19.1663 10.6245C19.0259 9.93639 18.6222 9.35232 17.9465 8.82425C17.1742 8.22418 16.0685 7.72811 14.8311 7.38407C13.4796 7.00802 11.9702 6.8304 10.6011 6.8192C10.5046 6.8184 10.4081 6.8184 10.3115 6.8192ZM28.3721 15.6651C28.1878 15.6731 28.0123 15.6891 27.8368 15.7051C26.5906 15.8491 25.5463 16.3452 24.7828 17.4813C25.1163 17.7934 25.4936 17.9614 25.9324 18.0414C26.5116 18.1454 27.2225 18.0734 27.9684 17.8414C29.0829 17.5053 30.2764 16.8173 31.1979 16.0812C30.3203 15.8171 29.3989 15.6651 28.5388 15.6651H28.3721ZM0.684511 23.8902V25.3303H18.6134C18.5169 25.9144 18.3677 26.7465 18.1308 27.6346C17.692 29.3148 16.867 31.1631 16.007 31.7712C14.91 32.5392 13.3918 32.5873 11.6542 32.4032C11.3208 32.2112 10.373 31.6351 9.45151 30.891C8.88986 30.443 8.36332 29.9309 8.04739 29.4829C7.73146 29.0268 7.67003 28.6988 7.74024 28.4907C7.73146 28.5387 7.73146 28.4907 7.9333 28.4187C8.14392 28.3467 8.4774 28.2827 8.81966 28.2587C9.50417 28.2027 10.1799 28.2587 10.1799 28.2587L10.3203 26.8185C10.3203 26.8185 10.1272 26.8025 9.82887 26.7945C9.52172 26.7865 9.11803 26.7865 8.68802 26.8185C8.25801 26.8585 7.80167 26.9225 7.36288 27.0746C6.93286 27.2266 6.43703 27.5066 6.24484 28.0427C5.95963 28.8268 6.26591 29.6029 6.71347 30.251C7.14348 30.883 7.75779 31.4511 8.38087 31.9472C7.18736 31.7952 5.9649 31.6991 4.81088 31.8672C4.50461 31.3151 4.11409 30.731 3.47784 30.259C2.69504 29.6749 1.57964 29.3148 0.0333479 29.2828L0 30.723C1.30233 30.747 1.99912 31.0191 2.47916 31.3791C2.80474 31.6191 3.04871 31.9312 3.27249 32.2912C2.96709 32.4272 2.66959 32.5873 2.3835 32.7793C1.45327 33.4114 1.10838 34.4515 0.833699 35.3556C0.559017 36.2517 0.444054 37.0358 0.444054 37.0358L2.00965 37.2278C2.00965 37.2278 2.11321 36.5318 2.35542 35.7397C2.59588 34.9556 3.06538 34.1074 3.32602 33.9314C4.81702 32.9233 7.0645 33.2033 9.5656 33.5794C12.0579 33.9554 14.8311 34.4115 16.9724 32.9073C17.6744 32.4112 18.1922 31.7151 18.6047 30.939C19.0259 31.7792 19.6314 32.5072 20.3598 33.1393C19.4208 33.3554 18.6047 33.7394 17.8938 34.2035C16.7179 34.9796 15.7876 35.9397 14.8398 36.7238L15.8929 37.7959C16.595 37.2118 17.2356 36.6118 17.8763 36.0837C18.2361 36.6678 18.7451 37.1318 19.3155 37.4679C20.2282 38.0119 21.2637 38.292 22.2115 38.5L22.5801 37.1078C21.7025 36.9078 20.8249 36.6518 20.1843 36.2677C19.7016 35.9797 19.3418 35.6516 19.1312 35.1796C20.0176 34.6595 20.9566 34.3475 22.2378 34.4115C22.8083 34.7075 23.405 34.9716 24.0193 35.1956C26.3537 36.0357 28.9688 36.3477 31.2593 36.1557C32.6986 36.0277 34.1378 35.2756 35.419 34.3955C35.9982 34.8195 36.4721 35.3316 36.7968 35.8357C37.262 36.5558 37.3673 37.2518 37.262 37.5639L38.7538 38.0119C39.1049 37.0758 38.7714 36.0517 38.1571 35.0996C37.7797 34.5235 37.2883 33.9714 36.6828 33.4754C36.6915 33.4754 36.6915 33.4674 36.7003 33.4674C38.2799 32.2592 39.4471 31.0831 39.4471 31.0831L38.2887 30.1069C38.2887 30.1069 37.1654 31.2191 35.6823 32.3632C34.1904 33.5074 32.2773 34.6195 31.1189 34.7155C29.1005 34.8915 26.6784 34.6035 24.5985 33.8514C22.5274 33.1073 20.8249 31.9152 20.0439 30.347C19.8157 29.8909 20.1053 28.5868 20.667 27.4666C20.9302 26.9385 21.2111 26.4665 21.4392 26.1064C21.7727 26.2665 22.1501 26.4585 22.5713 26.6825C23.7122 27.2906 25.0197 28.1227 25.5638 28.7228C25.9675 29.1628 26.4941 30.211 26.8539 31.0991C27.2137 31.9952 27.4419 32.7393 27.4419 32.7393L28.9688 32.3552C28.9688 32.3552 28.7231 31.5551 28.337 30.603C28.0913 29.9709 27.7929 29.2828 27.4155 28.6668C27.7753 28.6188 28.2492 28.6188 28.7933 28.7148C29.864 28.9068 31.1452 29.3948 32.2159 30.1149L33.1461 28.9468C31.8736 28.1067 30.4256 27.5386 29.0917 27.3066C28.5915 27.2186 28.1 27.1626 27.6262 27.1786C27.1786 27.1866 26.7573 27.2586 26.38 27.4026C25.5463 26.6585 24.3967 25.9944 23.3787 25.4424C23.3085 25.4023 23.2383 25.3703 23.1681 25.3303H40V23.8902H0.684511Z" fill="#FDFDFD"/>
</svg>
