<svg width="32" height="33" viewBox="0 0 32 33" fill="none" xmlns="http://www.w3.org/2000/svg">
<path d="M28.8646 22.3218L24.34 21.8052C23.8079 21.7427 23.2687 21.8016 22.7627 21.9775C22.2567 22.1534 21.7971 22.4416 21.4185 22.8206L18.1408 26.0983C13.0839 23.5264 8.97353 19.4161 6.40164 14.3591L9.69716 11.0635C10.4631 10.2976 10.8372 9.22873 10.7125 8.14209L10.1959 3.65303C10.0949 2.78404 9.67791 1.98252 9.02423 1.4011C8.37054 0.819685 7.52587 0.498963 6.65103 0.500003H3.56927C1.55633 0.500003 -0.118152 2.17449 0.0065438 4.18744C0.950666 19.4004 13.1174 31.5493 28.3124 32.4935C30.3253 32.6182 31.9998 30.9437 31.9998 28.9307V25.8489C32.0176 24.0498 30.6638 22.5356 28.8646 22.3218Z" fill="#FDFDFD"/>
</svg>
