<svg width="40" height="36" viewBox="0 0 40 36" fill="none" xmlns="http://www.w3.org/2000/svg">
<path d="M32.8975 22.3244C31.2993 23.4173 29.4637 23.9922 27.5934 23.9854C26.0265 23.9714 24.4774 23.6108 23.0342 22.9243C21.9219 24.6909 21.3266 26.8035 21.3311 28.9684V34.4969C21.3315 34.7025 21.2943 34.906 21.2219 35.0948C21.1494 35.2835 21.0433 35.4535 20.91 35.5942C20.7767 35.7348 20.6191 35.8431 20.447 35.9124C20.2749 35.9816 20.092 36.0103 19.9097 35.9967C19.567 35.9631 19.2483 35.7851 19.0175 35.4983C18.7866 35.2114 18.6607 34.837 18.6649 34.4501V32.1179L12.2293 24.8777C11.2726 25.2793 10.2609 25.4893 9.23981 25.4983C7.83417 25.5022 6.45484 25.0695 5.25382 24.2478C1.62276 21.7657 -0.331914 16.0534 0.0463563 8.96136C0.0654022 8.59445 0.203541 8.24818 0.434548 7.98829C0.665554 7.7284 0.973343 7.57299 1.29948 7.55157C7.60342 7.1335 12.6809 9.32505 14.8805 13.4101C15.7447 15.0112 16.122 16.8854 15.9554 18.7493C15.945 18.8937 15.8977 19.0316 15.8191 19.1464C15.7405 19.2612 15.6341 19.3479 15.5127 19.3961C15.3912 19.4443 15.26 19.4519 15.1348 19.4179C15.0096 19.384 14.8958 19.31 14.8072 19.2048L11.6078 15.4366C11.3557 15.1673 11.0201 15.0193 10.6725 15.0243C10.3249 15.0293 9.99272 15.1869 9.74689 15.4634C9.50106 15.74 9.36099 16.1137 9.35654 16.5047C9.35209 16.8958 9.48361 17.2734 9.72307 17.557L18.7016 27.9148C18.7116 27.7686 18.7232 27.6223 18.7366 27.478C19.0281 24.6973 20.1187 22.0998 21.8427 20.0803L30.273 10.0581C30.5231 9.7769 30.6637 9.39545 30.6639 8.99764C30.664 8.59983 30.5237 8.21824 30.2738 7.93682C30.0239 7.6554 29.6848 7.49721 29.3312 7.49703C28.9776 7.49685 28.6384 7.65472 28.3883 7.93589L20.223 17.6507C20.1412 17.7481 20.0378 17.8191 19.9234 17.8563C19.8091 17.8935 19.6879 17.8955 19.5726 17.8622C19.4573 17.829 19.352 17.7615 19.2677 17.6669C19.1834 17.5724 19.1231 17.4541 19.0932 17.3245C18.3033 14.0475 18.6516 10.7855 20.1597 7.98463C23.1358 2.45795 30.0613 -0.500357 38.6865 0.0695581C39.0127 0.0909851 39.3205 0.246395 39.5515 0.506282C39.7825 0.766169 39.9206 1.11244 39.9397 1.47935C40.4396 11.1848 37.81 18.9761 32.8975 22.3244Z" fill="#FDFDFD"/>
</svg>
