<svg width="40" height="40" viewBox="0 0 40 40" fill="none" xmlns="http://www.w3.org/2000/svg">
<path d="M20.176 2.53202C23.1239 0.74346 26.3835 -0.121446 29.6666 0.0137263C32.9496 0.148899 36.1552 1.27999 39 3.30705C39.2694 3.49897 39.4987 3.76579 39.6699 4.08629C39.8411 4.40678 39.9493 4.77213 39.986 5.15329L40 5.44455V37.5317C40 37.965 39.9076 38.3906 39.732 38.7659C39.5565 39.1411 39.304 39.4526 39 39.6693C38.6959 39.8859 38.3511 39.9999 38 39.9999C37.6489 39.9999 37.304 39.8859 37 39.6693C34.5677 37.9362 31.8086 37.0238 29 37.0238C26.1914 37.0238 23.4323 37.9362 21 39.6693C20.696 39.8859 20.3511 39.9999 20 39.9999C19.6489 39.9999 19.304 39.8859 19 39.6693C16.6573 37.9998 14.0099 37.0906 11.3051 37.0267C8.60042 36.9628 5.92674 37.7463 3.534 39.304L2.88 39.7482L2.674 39.8568L2.576 39.8963L2.356 39.9605L2.234 39.9852L2 40H1.916L1.696 39.9704L1.542 39.9358L1.326 39.8568L1.074 39.7186L0.884 39.5804L0.706 39.415L0.586 39.2768L0.44 39.0744L0.312 38.8547L0.268 38.7659L0.204 38.6178L0.116 38.3636L0.0840001 38.2426L0.0320001 37.9711L0.0120001 37.8205L0.00400019 37.6996L0 37.5317V5.44455C8.91844e-06 5.01129 0.0924258 4.58567 0.267962 4.21046C0.443498 3.83525 0.695969 3.52367 1 3.30705C3.84479 1.27999 7.05036 0.148899 10.3334 0.0137263C13.6165 -0.121446 16.8761 0.74346 19.824 2.53202L20 2.64062L20.176 2.53202Z" fill="#497B12"/>
</svg>
