<svg width="28" height="31" viewBox="0 0 28 31" fill="none" xmlns="http://www.w3.org/2000/svg">
<path fill-rule="evenodd" clip-rule="evenodd" d="M5.75 0.728516C3.863 0.845182 2.672 1.17852 1.8185 2.12852C0.5 3.59352 0.5 5.95018 0.5 10.6635V20.6635C0.5 25.3785 0.5 27.7352 1.8185 29.2002C3.1355 30.6635 5.258 30.6635 9.5 30.6635H18.5C22.742 30.6635 24.8645 30.6635 26.1815 29.2002C27.5 27.7335 27.5 25.3785 27.5 20.6635V10.6635C27.5 5.95018 27.5 3.59352 26.1815 2.12852C25.328 1.17852 24.137 0.845182 22.25 0.728516V1.50018C22.25 2.82626 21.7759 4.09803 20.932 5.03572C20.0881 5.9734 18.9435 6.50018 17.75 6.50018H10.25C9.05653 6.50018 7.91193 5.9734 7.06802 5.03572C6.22411 4.09803 5.75 2.82626 5.75 1.50018V0.728516ZM5.375 11.5002C5.375 11.1687 5.49353 10.8507 5.7045 10.6163C5.91548 10.3819 6.20163 10.2502 6.5 10.2502H21.5C21.7984 10.2502 22.0845 10.3819 22.2955 10.6163C22.5065 10.8507 22.625 11.1687 22.625 11.5002C22.625 11.8317 22.5065 12.1496 22.2955 12.3841C22.0845 12.6185 21.7984 12.7502 21.5 12.7502H6.5C6.20163 12.7502 5.91548 12.6185 5.7045 12.3841C5.49353 12.1496 5.375 11.8317 5.375 11.5002ZM6.875 17.3335C6.875 17.002 6.99353 16.6841 7.2045 16.4496C7.41548 16.2152 7.70163 16.0835 8 16.0835H20C20.2984 16.0835 20.5845 16.2152 20.7955 16.4496C21.0065 16.6841 21.125 17.002 21.125 17.3335C21.125 17.665 21.0065 17.983 20.7955 18.2174C20.5845 18.4518 20.2984 18.5835 20 18.5835H8C7.70163 18.5835 7.41548 18.4518 7.2045 18.2174C6.99353 17.983 6.875 17.665 6.875 17.3335ZM8.375 23.1668C8.375 22.8353 8.49353 22.5174 8.70451 22.283C8.91548 22.0485 9.20163 21.9168 9.5 21.9168H18.5C18.7984 21.9168 19.0845 22.0485 19.2955 22.283C19.5065 22.5174 19.625 22.8353 19.625 23.1668C19.625 23.4984 19.5065 23.8163 19.2955 24.0507C19.0845 24.2852 18.7984 24.4168 18.5 24.4168H9.5C9.20163 24.4168 8.91548 24.2852 8.70451 24.0507C8.49353 23.8163 8.375 23.4984 8.375 23.1668Z" fill="#497B12"/>
</svg>
