<svg width="40" height="38" viewBox="0 0 40 38" fill="none" xmlns="http://www.w3.org/2000/svg">
<path d="M35.3488 22.325C35.3488 21.9471 35.2018 21.5846 34.9402 21.3174C34.6785 21.0501 34.3236 20.9 33.9535 20.9H28.3721C28.002 20.9 27.6471 21.0501 27.3854 21.3174C27.1238 21.5846 26.9767 21.9471 26.9767 22.325V35.15H24.186V4.275C24.186 2.8918 24.1823 1.995 24.0967 1.3376C24.0149 0.7201 23.8828 0.5263 23.7767 0.418C23.6707 0.3097 23.4809 0.1748 22.8763 0.0912002C22.2307 0.00380018 21.3544 0 20 0C18.6456 0 17.7674 0.00380018 17.1237 0.0912002C16.5191 0.1748 16.3293 0.3097 16.2233 0.418C16.1172 0.5263 15.9851 0.7201 15.9033 1.3376C15.8177 1.9969 15.814 2.8918 15.814 4.275V35.15H13.0233V12.825C13.0233 12.4471 12.8762 12.0846 12.6146 11.8174C12.3529 11.5501 11.998 11.4 11.6279 11.4H6.04651C5.67644 11.4 5.32153 11.5501 5.05985 11.8174C4.79817 12.0846 4.65116 12.4471 4.65116 12.825V35.15H1.39535C1.02528 35.15 0.670367 35.3001 0.408688 35.5674C0.14701 35.8346 0 36.1971 0 36.575C0 36.9529 0.14701 37.3154 0.408688 37.5826C0.670367 37.8499 1.02528 38 1.39535 38H38.6047C38.9747 38 39.3296 37.8499 39.5913 37.5826C39.853 37.3154 40 36.9529 40 36.575C40 36.1971 39.853 35.8346 39.5913 35.5674C39.3296 35.3001 38.9747 35.15 38.6047 35.15H35.3488V22.325Z" fill="#497B12"/>
</svg>
