<svg width="44" height="44" viewBox="0 0 44 44" fill="none" xmlns="http://www.w3.org/2000/svg">
<path fill-rule="evenodd" clip-rule="evenodd" d="M37.6136 8.30456C37.8551 8.0439 37.9867 7.69915 37.9804 7.34293C37.9741 6.98671 37.8306 6.64684 37.58 6.39492C37.3295 6.14299 36.9914 5.99869 36.6371 5.9924C36.2828 5.98612 35.9399 6.11834 35.6806 6.36122L6.50414 35.6946C6.36977 35.8204 6.26199 35.9722 6.18724 36.1409C6.11249 36.3096 6.0723 36.4916 6.06906 36.6763C6.06582 36.8609 6.0996 37.0443 6.16839 37.2155C6.23717 37.3867 6.33955 37.5422 6.46942 37.6728C6.59929 37.8034 6.75399 37.9063 6.92429 37.9755C7.09458 38.0446 7.27699 38.0786 7.46062 38.0753C7.64426 38.0721 7.82536 38.0316 7.99312 37.9565C8.16088 37.8813 8.31187 37.773 8.43708 37.6379L13.9715 32.0737C16.3749 33.1884 19.1266 33.9162 22.0588 33.9162C26.8328 33.9162 31.1254 31.9894 34.2181 29.6024C35.7681 28.4071 37.0391 27.0797 37.929 25.7891C38.8043 24.5204 39.3824 23.1894 39.3824 21.9996C39.3824 20.8097 38.8043 19.4787 37.929 18.2119C37.0391 16.9194 35.7681 15.5921 34.2181 14.3986C33.7258 14.0172 33.2006 13.6469 32.6499 13.2967L37.6136 8.30456ZM27.7665 18.2082L25.7606 20.2212C26.1263 20.991 26.2456 21.8558 26.1021 22.6965C25.9586 23.5372 25.5594 24.3126 24.9595 24.9158C24.3595 25.5189 23.5883 25.9203 22.7521 26.0645C21.9158 26.2088 21.0557 26.0888 20.29 25.7212L18.2841 27.7379C19.5991 28.6132 21.1747 29.0047 22.7439 28.846C24.3131 28.6872 25.7795 27.9881 26.8947 26.8669C28.0099 25.7457 28.7053 24.2714 28.8632 22.6938C29.0211 21.1161 28.6317 19.5321 27.761 18.2101" fill="#5C5D5C"/>
<path d="M23.2806 15.2347C23.3557 15.2488 23.433 15.2445 23.506 15.2222C23.579 15.1998 23.6456 15.1601 23.7001 15.1063L27.2559 11.5313C27.3112 11.4767 27.3513 11.4084 27.3721 11.3333C27.3929 11.2582 27.3937 11.179 27.3745 11.1034C27.3553 11.0279 27.3168 10.9588 27.2627 10.9029C27.2086 10.8471 27.1409 10.8065 27.0663 10.7852C25.4367 10.3234 23.752 10.0872 22.0589 10.083C17.2849 10.083 12.9923 12.0098 9.89959 14.3968C8.34959 15.5922 7.07859 16.9195 6.18688 18.2102C5.31159 19.4788 4.73535 20.8098 4.73535 21.9997C4.73535 23.1895 5.31341 24.5205 6.18688 25.7873C7.05462 27.0118 8.07985 28.1153 9.23582 29.069C9.32232 29.1409 9.43248 29.1776 9.54456 29.1718C9.65663 29.166 9.76249 29.1182 9.84123 29.0378L15.2024 23.6478C15.2559 23.5931 15.2954 23.5261 15.3176 23.4527C15.3398 23.3793 15.3441 23.3016 15.3301 23.2262C15.1324 22.1328 15.2014 21.0075 15.5311 19.9468C15.8607 18.8861 16.4412 17.9215 17.2228 17.1357C18.0044 16.3499 18.9638 15.7663 20.0188 15.4349C21.0739 15.1035 22.1931 15.0342 23.2806 15.2328" fill="#5C5D5C"/>
</svg>
