<svg width="40" height="40" viewBox="0 0 40 40" fill="none" xmlns="http://www.w3.org/2000/svg">
<path d="M18.0565 0.000517282C8.94801 -0.0122363 0.490455 0.210527 0.597076 0.703667L2.83915 3.77644C8.86677 3.34282 14.6141 3.18552 20.3716 3.21783C25.7738 3.24759 31.186 3.44484 36.8318 3.73563L40 0.906024C39.5431 0.332962 28.3834 0.0149714 18.0565 0.000517282ZM18.4423 4.74571C13.4565 4.75592 8.4606 4.91491 3.24228 5.28307C1.02965 15.7972 -0.195979 28.6273 2.68379 36.543L0 39.1788C13.0097 39.995 26.251 40.2586 38.8526 39.7144L35.8164 36.6876C37.7762 27.658 37.1669 15.3295 35.8367 5.21845C30.6377 4.95827 25.6519 4.78483 20.6763 4.75167L34.3034 15.2275H27.0634C27.4492 17.1915 29.1348 19.8443 30.9119 22.3015C31.9171 23.6959 32.9427 25.0478 33.7246 26.2381C34.5065 27.4285 35.1056 28.4232 35.1056 29.4265C35.1056 31.8072 33.1864 33.7627 30.3635 35.0296C27.5406 36.305 23.753 36.9937 19.5695 36.9937C15.3859 36.9937 11.5983 36.305 8.77538 35.0296C5.95248 33.7627 4.03331 31.8072 4.03331 29.4265C4.03331 28.4062 4.66288 27.4114 5.48538 26.2041C6.30788 24.9968 7.37409 23.6364 8.40983 22.225C10.2376 19.7508 11.9029 17.081 12.1365 15.2275H4.13485L18.4423 4.74571ZM19.5593 5.96751L9.00894 13.6971H13.9135L13.9846 14.3943C14.2587 17.1065 12.0654 20.1759 9.96344 23.0327C8.90739 24.4611 7.85134 25.813 7.07961 26.9608C6.29773 28.1001 5.86109 29.0864 5.86109 29.4265C5.86109 30.6679 6.57189 31.7647 7.90211 32.7085C13.4058 32.1303 16.2287 31.8072 18.7063 31.7392C18.7673 31.0165 18.879 30.2938 19.0211 29.5966C15.3046 29.7921 11.8826 28.9589 8.51137 27.9556C10.0244 25.5069 12.8067 23.7979 15.3148 23.8064C15.7819 23.8064 16.2388 23.8574 16.6755 23.985C17.8128 24.2911 18.8383 26 19.5187 27.437C19.7421 26.5442 19.9553 25.779 20.0467 25.2178V25.2093C20.1381 24.6822 19.8842 23.1687 19.5593 21.9189C19.3258 21.0176 19.082 20.2269 18.9602 19.8528C18.3205 19.8528 17.7518 19.7508 17.3761 19.4277C14.7969 17.183 16.4724 13.0339 18.686 10.7212C20.26 12.9148 22.3111 15.2785 24.3725 16.911C23.9257 18.1693 23.1133 19.1811 21.5394 19.6317C21.3262 19.6487 21.0621 19.6743 20.7981 19.7083C20.9403 20.1504 21.1434 20.8136 21.3465 21.5873C21.4785 22.0719 21.6003 22.5736 21.7019 23.0752C22.24 22.6586 22.8595 22.276 23.3672 22.259H23.4789C26.3221 22.48 29.541 24.7757 30.3534 28.1257C27.5609 27.0543 24.3623 27.675 21.8339 25.5579C21.5496 27.1394 20.7575 29.52 20.5443 31.7477C22.9915 31.8157 25.8144 32.1388 31.2368 32.7085C32.567 31.7647 33.2778 30.6679 33.2778 29.4265C33.2778 29.0694 32.8615 28.1001 32.1202 26.9778C31.379 25.847 30.3737 24.5121 29.3481 23.0922C27.3071 20.2694 25.1543 17.2 25.1543 14.4623V13.6971H29.6121L19.5593 5.96751ZM19.5695 33.2441C17.305 33.2441 14.9086 33.4992 10.3595 33.9838C12.766 34.9106 15.9951 35.4632 19.5695 35.4632C23.1438 35.4632 26.3729 34.9106 28.7794 33.9838C24.2303 33.4992 21.8339 33.2441 19.5695 33.2441Z" fill="#FDFDFD"/>
</svg>
