<svg width="40" height="38" viewBox="0 0 40 38" fill="none" xmlns="http://www.w3.org/2000/svg">
<path d="M28.5389 19C33.7845 19 38.0417 14.744 38.0417 9.5C38.0417 4.256 33.7845 0 28.5389 0C23.2933 0 19.0361 4.256 19.0361 9.5C19.0361 14.744 23.2933 19 28.5389 19ZM38.897 29.64C38.1558 28.88 37.2245 28.5 36.1412 28.5H22.8372L18.884 27.113L19.5112 25.327L22.8372 26.6H28.1588C28.824 26.6 29.3561 26.334 29.7933 25.897C30.2304 25.46 30.4395 24.928 30.4395 24.339C30.4395 23.313 29.9453 22.61 28.957 22.211L15.1399 17.1H11.4338V34.2L24.7378 38L39.9993 32.3C40.0183 31.293 39.6382 30.4 38.897 29.64ZM7.63267 17.1H0V38H7.63267V17.1Z" fill="#497B12"/>
</svg>
