<svg width="63" height="62" viewBox="0 0 63 62" fill="none" xmlns="http://www.w3.org/2000/svg">
<path d="M62.125 30.625C62.125 47.6875 48.2708 61.25 31.5 61.25C14.7292 61.25 0.875 47.6875 0.875 30.625C0.875 13.5625 14.4375 0 31.5 0C48.5625 0 62.125 13.5625 62.125 30.625ZM31.2083 44.7708C31.2083 44.1875 30.9167 43.8958 30.3333 43.6042C28.4375 43.0208 26.6875 43.0208 25.0833 41.4167C24.7917 40.8333 24.7917 40.25 24.5 39.5208C23.9167 38.9375 22.3125 38.6458 21.4375 38.3542H15.3125C14.4375 38.0625 13.7083 36.75 13.125 35.875C13.125 35.5833 13.125 35 12.5417 35C11.9583 34.7083 11.375 35.2917 10.6458 35C10.3542 34.7083 10.3542 34.4167 10.3542 34.125C10.3542 33.25 10.9375 32.2292 11.5208 31.6458C12.3958 31.0625 13.4167 31.9375 14.2917 31.9375C14.5833 31.9375 14.5833 31.9375 14.875 32.2292C15.75 32.5208 16.0417 33.6875 16.0417 34.7083V35.2917C16.0417 35.5833 16.3333 35.5833 16.625 35.5833C16.9167 33.9792 16.9167 32.5208 17.2083 30.9167C17.2083 29.0208 19.1042 27.2708 20.5625 26.6875C21.1458 26.3958 21.4375 26.9792 22.1667 26.6875C24.0625 26.1042 28.5833 24.2083 27.7083 21.7292C27.125 19.5417 25.2292 17.5 22.75 17.7917C22.1667 18.0833 21.875 18.375 21.2917 18.6667C20.4167 19.25 18.5208 21.1458 17.6458 21.1458C16.0417 20.8542 16.0417 18.6667 16.4792 17.7917C16.7708 16.625 19.5417 12.5417 21.4375 13.2708L22.6042 14.4375C23.1875 14.7292 24.2083 14.7292 25.0833 14.7292C25.375 14.7292 25.6667 14.7292 25.9583 14.4375C26.25 14.1458 26.25 14.1458 26.25 13.8542C26.25 12.9792 25.375 11.9583 24.7917 11.375C24.2083 10.7917 23.1875 10.2083 22.3125 9.77083C19.25 8.89583 14.2917 10.0625 11.9583 12.25C9.625 14.4375 7.72917 18.0833 6.41667 21.1458C5.83333 23.0417 5.25 25.375 4.95833 27.5625C4.66667 29.0208 4.375 30.3333 5.25 31.7917C6.125 33.6875 8.02083 35.4375 9.91667 36.75C11.0833 37.625 13.5625 37.625 14.875 39.2292C15.75 40.3958 15.4583 42 15.4583 43.4583C15.4583 45.3542 16.625 46.8125 17.3542 48.4167C17.6458 49.2917 17.9375 50.6042 18.2292 51.4792C18.2292 51.7708 18.5208 53.6667 18.5208 53.9583C20.4167 54.8333 21.875 55.8542 24.0625 56.4375C24.3542 56.4375 25.5208 54.5417 25.5208 54.25C26.3958 53.375 27.125 52.0625 28 51.4792C28.5833 51.1875 29.1667 50.8958 29.8958 50.3125C30.4792 49.7292 30.7708 48.4167 31.0625 47.5417C31.2083 46.8125 31.5 45.6458 31.2083 44.7708ZM31.7917 16.4792C32.0833 16.4792 32.375 16.1875 32.9583 15.8958C33.8333 15.3125 34.8542 14.2917 35.7292 13.7083C36.6042 13.125 37.625 12.1042 38.2083 11.5208C39.0833 10.9375 39.8125 9.625 40.1042 8.75C40.3958 8.16667 41.2708 6.85417 40.9792 5.97917C40.6875 5.39583 39.0833 5.10417 38.5 4.8125C36.0208 4.22917 33.9792 3.9375 31.5 3.9375C30.625 3.9375 29.3125 4.22917 29.0208 5.10417C28.7292 6.70833 29.8958 6.27083 31.2083 6.70833C31.2083 6.70833 31.5 9.1875 31.5 9.47917C31.7917 10.9375 30.9167 11.9583 30.9167 13.4167C30.9167 14.2917 30.9167 15.8958 31.5 16.4792H31.7917ZM57.4583 37.9167C57.75 37.3333 57.75 36.3125 58.0417 35.7292C58.3333 34.2708 58.3333 32.6667 58.3333 31.2083C58.3333 28.1458 58.0417 25.0833 57.1667 22.3125C56.5833 21.4375 56.2917 20.4167 56 19.5417C55.4167 17.9375 54.5417 16.4792 53.2292 15.3125C52.0625 13.7083 50.4583 9.47917 47.6875 10.7917C46.8125 11.0833 46.2292 12.25 45.5 12.9792C44.9167 13.8542 44.3333 14.875 43.6042 15.75C43.3125 16.0417 43.0208 16.625 43.3125 16.9167C43.3125 17.2083 43.6042 17.2083 43.8958 17.2083C44.4792 17.5 44.7708 17.5 45.3542 17.7917C45.6458 17.7917 45.9375 18.0833 45.6458 18.375C45.6458 18.375 45.6458 18.6667 45.3542 18.6667C43.8958 20.2708 42.2917 21.4375 40.8333 22.8958C40.5417 23.1875 40.25 23.7708 40.25 24.0625C40.25 24.3542 40.5417 24.3542 40.5417 24.6458C40.5417 24.9375 40.25 24.9375 39.9583 25.2292C39.375 25.5208 38.7917 25.8125 38.3542 26.1042C38.0625 26.6875 38.3542 27.7083 38.0625 28.2917C37.7708 29.8958 36.8958 31.0625 36.1667 32.5208C35.5833 33.3958 35.2917 34.4167 34.7083 35.2917C34.7083 36.4583 34.4167 37.4792 35 38.3542C36.4583 40.5417 39.2292 39.2292 41.4167 40.25C42 40.5417 42.5833 40.5417 43.0208 41.125C43.8958 42 43.8958 43.6042 44.1875 44.4792C44.4792 45.6458 44.7708 46.9583 45.3542 48.125C45.6458 49.5833 46.2292 51.1875 46.5208 52.3542C49.2917 50.1667 51.7708 47.8333 53.5208 44.7708C55.7083 42.875 56.5833 40.3958 57.4583 37.9167Z" fill="#FDFDFD"/>
</svg>
