<svg width="180" height="281" viewBox="0 0 180 281" fill="none" xmlns="http://www.w3.org/2000/svg">
<path d="M113.037 233.3C112.212 233.347 111.344 233.449 110.507 233.362C110.489 233.401 110.471 233.437 110.458 233.466C102.392 236.437 96.7866 236.281 88.7169 239.24C84.9209 240.633 78.2392 242.634 74.2804 241.279C71.1475 240.206 66.5664 236.764 64.5984 234.145C59.6631 227.578 59.4868 218.119 57.4645 210.366C55.2327 201.811 54.0166 194.166 51.3493 185.738C48.6866 177.32 47.0591 168.202 44.1251 159.88C44.0663 158.497 43.5223 157.2 43.0823 155.882C42.5142 154.178 41.9355 152.477 41.3779 150.768C40.3186 147.522 39.2969 144.264 38.3128 140.994C36.3463 134.455 34.5289 127.87 32.8667 121.247C31.2272 114.713 29.7172 108.144 28.3474 101.548C26.9776 94.9524 25.965 88.2013 23.81 81.8014C22.9737 79.3194 21.619 76.1534 18.382 76.8511C17.5412 77.0319 16.8088 77.4478 16.2166 78.0235C16.1488 77.7567 15.7223 77.6392 15.5912 77.93C14.6554 80.0036 13.8929 82.0455 13.3052 84.2411C12.6873 86.5467 12.1177 88.8614 11.5526 91.179C10.4932 95.5251 9.60262 99.9796 7.95705 104.152C6.43052 108.025 4.31779 111.771 4.00133 116.001C3.67433 120.384 6.08241 123.507 8.3594 126.969C12.9691 133.979 15.0683 142.148 16.7289 150.275C18.581 159.341 20.2793 168.441 22.0861 177.516C23.0762 182.492 23.8342 187.607 25.436 192.432C25.9122 193.868 26.4728 195.352 27.1298 196.808C25.2386 203.009 23.6051 209.282 21.3206 215.364C18.8266 222.002 15.8444 228.433 12.3106 234.584C10.5505 237.646 8.66229 240.634 6.65354 243.54C5.64841 244.992 4.61315 246.424 3.54774 247.833C2.53357 249.174 1.1713 250.524 1.05074 252.292C0.839773 255.354 4.63123 258.063 6.77109 259.685C24.6946 273.279 48.0009 279.798 70.2192 280.538C73.7756 280.657 77.4556 280.824 80.7995 279.402C87.2748 276.647 89.713 269.709 92.6108 263.883C94.4131 260.261 96.0241 256.807 98.4969 253.633C100.723 250.776 102.228 247.961 103.63 244.619C104.837 241.743 107.099 238.746 109.481 236.599C110.733 235.47 112.46 235.057 113.666 233.868C113.856 233.681 114.023 233.481 114.172 233.27C113.788 233.255 113.401 233.276 113.034 233.295L113.037 233.3Z" fill="#FFE4D2"/>
<path d="M143.192 46.1208C142.356 43.3043 140.26 41.0183 137.532 39.9393C135.252 39.0382 131.866 38.9297 130.35 41.071C129.643 41.1479 129.022 41.7416 129.244 42.6985C130.92 49.968 134.307 56.8999 135.031 64.3879C135.148 65.601 136.56 65.9943 137.274 64.9952C139.28 62.1923 141.283 59.317 142.324 55.9958C143.272 52.9713 144.119 49.2432 143.192 46.1223V46.1208Z" fill="#FFE4D2"/>
<path d="M157.84 81.2802C155.18 79.2262 151.553 77.4797 148.146 78.4848C145.985 79.1223 144.078 80.4966 142.335 82.0427C141.471 82.5505 140.691 83.185 139.891 83.8344C138.587 84.8938 137.3 85.9818 136.123 87.1814C133.94 89.4086 132.08 91.9704 131.013 94.9225C129.907 97.9816 130.218 101.134 132.251 103.714C133.094 104.785 134.164 105.81 135.389 106.437C136.996 107.26 138.726 107.178 140.472 107.001C143.884 106.651 146.909 105.721 149.702 103.69C152.394 101.734 154.904 99.5292 157.208 97.1287C159.341 94.9059 162.112 92.1558 162.246 88.8752C162.371 85.807 160.138 83.0554 157.838 81.2802H157.84Z" fill="#FFE4D2"/>
<path d="M164.896 112.668C163.261 109.951 160.512 108.477 157.417 108.171C156.942 108.125 156.566 108.34 156.317 108.67C152.547 108.884 148.74 111.538 145.871 114.425C143.818 115.769 141.873 117.338 139.98 118.821C137.317 120.91 134.701 123.11 132.299 125.497C130.262 127.522 128.395 130.063 128.666 133.089C128.928 136.014 131.196 139.085 133.374 140.958C138.678 145.521 145.853 140.064 150.152 136.746C153.115 134.46 156.127 132.216 158.992 129.808C161.38 127.801 163.864 125.58 165.173 122.683C166.596 119.538 166.712 115.691 164.894 112.67L164.896 112.668Z" fill="#FFE4D2"/>
<path d="M178.689 157.868C178.131 153.794 175.108 151.245 171.371 150.809C166.983 150.298 162.331 150.943 158.001 151.682C155.506 152.108 153.033 152.672 150.602 153.38C149.428 153.722 148.264 154.093 147.109 154.495C146.067 154.86 144.884 155.155 144.038 155.893C143.152 156.297 142.451 157.358 141.928 158.52C141.094 158.505 140.167 159.203 140.379 160.285C140.518 161.088 140.632 161.899 140.834 162.688C140.84 162.714 140.852 162.735 140.86 162.761C141.161 164.053 141.612 165.283 142.587 166.308C144.091 167.887 146.491 168.82 148.469 169.611C150.892 170.582 153.457 170.913 156.054 170.903C158.277 170.893 160.583 170.574 162.816 170.773C163.539 171.923 163.927 173.294 164.086 174.635C164.199 175.585 165.2 176.471 166.163 175.827C169.498 173.597 172.453 170.868 174.911 167.696C177.221 164.714 179.231 161.837 178.687 157.869L178.689 157.868Z" fill="#FFE4D2"/>
<path d="M133.254 90.2813C131.429 93.8512 133.601 98.5484 137.172 100.37C140.742 102.194 145.147 101.615 148.773 99.9046C154.246 97.3217 158.337 92.4272 161.209 87.0986C161.674 90.8012 160.203 94.558 157.869 97.4694C155.534 100.379 152.398 102.542 149.164 104.403C146.604 105.877 143.881 107.212 140.946 107.552C138.01 107.893 134.803 107.09 132.861 104.862C131.256 103.022 130.701 100.418 131.025 97.9983C131.349 95.5782 132.478 93.3268 133.254 90.2798V90.2813Z" fill="#FFA294"/>
<path d="M132.522 126.158C131.916 128.168 132.737 130.429 134.234 131.903C135.73 133.376 137.799 134.147 139.874 134.469C145.394 135.325 151.068 133.199 155.478 129.769C159.888 126.339 163.197 121.705 166.149 116.963C166.255 120.201 164.885 123.349 162.941 125.941C160.997 128.533 158.5 130.649 156.025 132.741C152.144 136.024 148.168 139.362 143.436 141.226C141.172 142.118 138.681 142.655 136.295 142.166C132.846 141.46 130.011 138.502 129.304 135.052C128.598 131.603 129.976 127.844 132.519 126.157L132.522 126.158Z" fill="#FFA294"/>
<path d="M144.705 155.625C143.565 156.736 143.542 158.657 144.303 160.055C145.062 161.455 146.437 162.415 147.853 163.145C151.517 165.034 155.697 165.706 159.817 165.857C163.221 165.982 166.677 165.761 169.918 164.712C173.158 163.663 176.184 161.73 178.119 158.925C177.6 166.516 172.32 173.574 165.185 176.214C164.544 174.484 163.905 172.753 163.265 171.023C158.393 171.131 153.424 171.178 148.767 169.742C145.61 168.769 142.458 166.898 141.221 163.836C139.983 160.774 141.636 156.519 144.708 155.622L144.705 155.625Z" fill="#FFA294"/>
<path d="M129.368 42.2961C130.793 42.0987 132.3 42.0053 133.622 42.5749C134.977 43.1596 135.959 44.3697 136.726 45.6295C140.433 51.722 139.958 60.0855 135.585 65.72C135.546 61.9557 134.338 58.3119 133.143 54.7419C131.798 50.7259 130.454 46.71 129.366 42.2961H129.368Z" fill="#FFA294"/>
<path d="M19.1969 76.8154C23.7569 82.3263 24.1788 90.1006 23.8805 97.248C23.6062 103.806 22.9025 110.346 21.7768 116.814C21.5492 118.124 21.3036 119.462 21.5327 120.771C21.7692 122.123 22.4941 123.335 23.2626 124.472C26.8416 129.778 31.6608 134.243 37.2229 137.408C33.977 118.466 29.3055 99.7676 23.2611 81.5246C22.6583 79.7072 21.8506 77.6834 19.1969 76.8154Z" fill="#FFA294"/>
<path d="M70.3563 239.693C75.9259 240.983 80.9591 244.458 84.1417 249.206C88.1939 255.255 89.1101 262.803 89.9163 270.038C91.357 263.885 95.4152 258.742 98.4712 253.211C102.468 245.98 105.359 237.291 112.626 233.357C107.145 234.986 101.666 236.617 96.1852 238.246C88.4245 240.553 80.2568 242.881 70.3563 239.691V239.693Z" fill="#FFA294"/>
<path d="M171.769 202.918L163.458 171.52C161.076 171.834 158.64 171.838 156.276 171.659C154.403 171.517 152.507 171.279 150.675 170.857C149.092 170.493 147.486 170.14 145.979 169.522C144.386 168.868 142.965 167.91 141.959 166.492C140.988 165.127 140.434 163.492 140.482 161.808C140.53 160.114 141.172 158.464 142.341 157.229C143.541 155.96 145.14 155.006 146.758 154.385C148.562 153.693 150.498 153.497 152.34 152.929C154.254 152.339 156.131 151.624 158.125 151.371L153.622 134.358C152.497 135.363 151.279 136.258 149.923 136.871C149.709 136.968 149.469 136.963 149.293 136.828C147.717 138.401 146.13 140.003 144.377 141.367C142.475 142.846 140.305 143.864 137.846 143.555C135.959 143.318 134.162 142.678 132.661 141.492C130.004 139.391 129.014 135.912 129.489 132.643C129.74 130.916 130.408 129.24 131.378 127.792C131.989 126.882 132.723 126.092 133.497 125.321C134.517 124.302 135.575 123.321 136.651 122.358C138.701 120.524 140.774 118.704 142.902 116.962C143.883 116.159 144.871 115.36 145.798 114.493C146.523 113.815 147.231 113.095 147.774 112.262L146.1 105.935C144.364 106.727 142.515 107.231 140.554 107.25C138.542 107.269 136.493 106.803 134.677 105.94C133.408 105.337 132.246 104.475 131.451 103.304C129.996 101.162 130.265 98.4234 131.086 96.0967C132.061 93.333 133.704 90.8269 135.473 88.5107C136.9 86.6421 138.45 84.8715 140.075 83.1717L120.973 11.0059C117.857 2.50522 107.781 -0.073151 103.973 0.947047L20.6741 22.4797C16.8661 23.4999 11.1533 34.5382 12.1735 38.3463L63.0311 233.409C64.0513 237.217 76.3495 243.062 80.156 242.041L162.302 220.321C166.11 219.301 172.467 211.411 171.77 202.918H171.769Z" fill="#497B12"/>
<path d="M165.354 199.636L157.722 171.378C155.483 171.673 154.021 171.014 151.8 170.846C150.04 170.712 148.265 170.044 146.542 169.648C145.055 169.306 144.131 167.203 142.716 166.622C141.22 166.007 141.699 164.526 140.753 163.193C139.841 161.911 140.109 161.048 140.155 159.467C140.2 157.875 141.121 158.365 142.218 157.203C143.345 156.011 144.556 155.591 146.077 155.008C147.772 154.357 148.272 153.944 150.004 153.41C151.802 152.856 150.991 152.782 152.866 152.545L148.673 137.904C147.615 138.849 148.417 138.061 147.142 138.636C146.942 138.727 145.711 139.562 145.545 139.435C144.064 140.913 143.465 141.014 141.818 142.297C140.031 143.688 137.386 142.514 135.075 142.224C133.303 142.003 132.713 140.219 131.304 139.103C128.807 137.129 128.396 134.854 128.842 131.783C129.079 130.16 129.594 128.951 130.506 127.59C131.078 126.735 131.642 126.254 132.37 125.527C133.328 124.569 134.288 123.769 135.298 122.866C137.224 121.142 138.822 119.578 140.821 117.942C141.743 117.187 142.412 117.292 143.283 116.477C143.964 115.839 141.973 115.065 142.484 114.281L140.887 107.426C139.255 108.169 139.136 107.408 137.293 107.426C135.402 107.444 134.874 106.373 133.167 105.562C131.975 104.995 131.984 103.136 131.237 102.034C129.87 100.021 130.132 99.2299 130.903 97.0433C131.82 94.4454 131.179 92.6777 132.841 90.5017C134.183 88.7461 133.969 88.2594 135.495 86.662L117.02 16.6813C114.333 6.6044 106.241 5.62941 102.662 6.58782L23.0534 28.3375C19.4759 29.2959 17.119 37.9804 18.0775 41.5578L66.411 226.363C67.3694 229.94 73.4951 237.415 77.0726 236.456L158.387 215.275C161.965 214.316 166.775 209.731 165.352 199.637L165.354 199.636Z" fill="#FDFDFD"/>
<path d="M27.7386 102.043C27.3287 107.313 26.3477 112.512 25.2386 117.673C25.0186 118.696 26.5903 119.133 26.8103 118.107C27.9496 112.804 28.9472 107.459 29.3691 102.044C29.4505 100.999 27.82 101.003 27.7386 102.044V102.043Z" fill="black"/>
<path d="M5.73102 110.169C9.27685 104.186 11.0686 97.4184 12.678 90.7096C13.4661 87.4259 14.078 84.0142 15.175 80.818C15.615 79.5356 16.4574 77.8162 17.9312 77.5178C19.6431 77.1727 21.0491 78.8967 22.0466 80.0449C22.7353 80.8376 23.8851 79.6818 23.1995 78.8921C21.3474 76.7613 18.5521 74.5989 15.8697 76.7764C13.2657 78.8906 12.8287 83.101 12.0933 86.142C10.178 94.0685 8.53091 102.247 4.32354 109.346C3.78707 110.25 5.19606 111.071 5.73102 110.169Z" fill="black"/>
<path d="M3.95595 110.173C1.23894 115.071 3.50539 120.413 6.01595 124.862C8.96804 130.091 11.667 135.41 13.748 141.052C15.7945 146.599 17.3044 152.354 18.1212 158.213C18.9831 164.398 19.2107 170.647 20.2445 176.812C21.3882 183.637 23.2433 190.321 25.7342 196.776C26.108 197.745 27.6842 197.324 27.306 196.342C25.1631 190.787 23.4874 185.062 22.3346 179.22C21.1441 173.189 20.7613 167.087 20.0923 160.989C18.8551 149.703 15.3379 138.911 10.0892 128.861C7.38123 123.676 2.00749 117.044 5.36344 110.995C5.87278 110.077 4.4653 109.253 3.95595 110.172V110.173Z" fill="black"/>
<path d="M129.432 42.1769C131.734 40.4078 134.781 39.9391 137.521 40.9292C140.583 42.0353 142.379 44.8819 142.821 48.0163C143.794 54.9271 138.999 60.7092 135.334 66.0212C134.738 66.8862 136.15 67.703 136.742 66.844C140.94 60.759 146.403 53.7984 144.025 45.9066C142.073 39.4298 134.093 36.5575 128.609 40.7694C127.789 41.3993 128.6 42.8159 129.432 42.1769Z" fill="black"/>
<path d="M140.878 108.166C144.62 107.647 148.043 105.807 151.137 103.719C154.046 101.755 156.854 99.5717 159.058 96.817C161.127 94.2296 162.842 90.9988 162.537 87.584C162.301 84.9243 160.917 82.4876 158.942 80.7214C156.948 78.9402 154.415 77.7799 151.747 77.5327C148.725 77.2525 146.131 78.5394 143.608 80.0644C138.049 83.4264 132.875 88.6193 130.382 94.7103C129.116 97.8056 129.002 101.41 131.041 104.212C133.263 107.263 136.992 108.574 140.661 108.196C141.695 108.089 141.705 106.458 140.661 106.565C137.448 106.897 134.089 105.866 132.219 103.062C130.705 100.791 130.855 97.9864 131.803 95.5256C133.872 90.1488 138.434 85.4291 143.158 82.2826C145.299 80.8571 147.736 79.2657 150.376 79.1301C152.736 79.0095 155.1 79.8489 156.993 81.2323C158.92 82.6413 160.439 84.7239 160.843 87.1093C161.383 90.3086 159.715 93.437 157.76 95.8481C155.675 98.4204 153.045 100.47 150.314 102.313C147.322 104.334 144.065 106.095 140.445 106.596C139.41 106.739 139.852 108.309 140.879 108.167L140.878 108.166Z" fill="black"/>
<path d="M138.786 119.23C134.678 122.723 128.643 126.565 128.188 132.51C127.754 138.181 133.893 144.762 139.71 143.954C141.142 143.755 142.313 143.069 143.498 142.292C145.387 141.053 147.216 139.724 149.038 138.393C149.877 137.781 149.065 136.366 148.215 136.986C146.439 138.282 144.657 139.575 142.822 140.788C141.589 141.603 140.397 142.36 138.866 142.396C135.186 142.485 131.872 139.174 130.474 136.026C127.457 129.237 135.58 124.089 139.939 120.382C140.739 119.701 139.582 118.553 138.786 119.23Z" fill="black"/>
<path d="M142.483 115.921C141.505 116.801 140.536 117.691 139.579 118.594C138.815 119.316 139.97 120.467 140.732 119.747C141.689 118.844 142.657 117.953 143.636 117.073C144.418 116.371 143.262 115.221 142.483 115.921Z" fill="black"/>
<path d="M166.027 176.955C170.069 174.245 173.631 170.844 176.397 166.831C178.797 163.348 180.483 158.742 178.338 154.711C176.424 151.115 172.103 150.172 168.362 150.105C163.035 150.011 157.578 150.921 152.393 152.064C151.368 152.291 151.802 153.862 152.827 153.636C157.399 152.627 162.063 151.93 166.745 151.754C170.182 151.624 174.694 151.894 176.716 155.161C179.091 158.999 176.811 163.552 174.453 166.763C171.918 170.213 168.756 173.169 165.206 175.549C164.34 176.13 165.155 177.542 166.029 176.956L166.027 176.955Z" fill="black"/>
<path d="M157.382 171.822C160.445 171.831 163.509 171.84 166.573 171.848C167.622 171.851 167.623 170.22 166.573 170.217C163.509 170.21 160.445 170.2 157.382 170.191C156.333 170.188 156.332 171.819 157.382 171.822Z" fill="black"/>
<path d="M26.1774 197.464C25.9378 199.774 25.0276 202.084 24.2455 204.251C22.9405 207.874 21.4487 211.429 19.8935 214.949C16.2437 223.219 12.2337 231.349 7.8199 239.238C5.64991 243.117 3.38197 246.956 0.824698 250.595C0.220415 251.456 1.63242 252.271 2.23218 251.418C7.13878 244.435 11.1578 236.795 14.9764 229.177C18.8326 221.481 22.5035 213.633 25.4978 205.556C26.4592 202.961 27.5186 200.238 27.8064 197.464C27.9149 196.421 26.2829 196.429 26.1759 197.464H26.1774Z" fill="black"/>
<path d="M105.111 239.485C99.9995 248.739 94.9844 258.047 89.9181 267.327C88.806 269.363 87.6954 271.399 86.5742 273.428C86.0664 274.348 87.4739 275.171 87.9817 274.251C93.0932 264.997 98.1083 255.689 103.175 246.409C104.287 244.373 105.397 242.337 106.519 240.307C107.026 239.388 105.619 238.565 105.111 239.485Z" fill="black"/>
<path d="M148.603 112.271C148.102 110.246 147.604 108.219 147.103 106.193C146.852 105.175 145.28 105.607 145.532 106.627C146.032 108.653 146.531 110.68 147.031 112.705C147.283 113.724 148.854 113.291 148.603 112.271Z" fill="black"/>
<path d="M140.732 82.6412C138.497 74.0682 136.264 65.4952 134.029 56.9222C132.317 50.352 130.61 43.7802 128.885 37.213C127.427 31.6644 125.969 26.1159 124.511 20.5673C123.423 16.4233 122.676 11.7457 120.306 8.10646C116.095 1.6432 108.134 -1.32396 100.702 0.558208C98.7563 1.05098 96.8199 1.57841 94.8804 2.08775C84.7161 4.75805 74.5518 7.42834 64.3875 10.0986C53.7621 12.8895 43.1367 15.6818 32.5128 18.4727C30.058 19.1177 27.6032 19.7566 25.1499 20.4076C19.104 22.011 14.1989 26.3902 12.2806 32.4043C10.5582 37.8052 12.1284 42.7239 13.4846 47.8896C15.2221 54.5051 16.9611 61.1191 18.6986 67.7345C21.3072 77.6653 23.9172 87.596 26.5257 97.5252C29.5893 109.186 32.6529 120.845 35.715 132.506C38.8163 144.31 41.9176 156.113 45.0189 167.917C47.7494 178.314 50.4815 188.709 53.2121 199.105C55.1349 206.424 57.0578 213.742 58.9806 221.061C59.7868 224.131 60.4378 227.303 61.455 230.315C64.1103 238.186 72.1407 243.347 80.4108 242.39C82.6757 242.128 84.9151 241.405 87.1152 240.828C96.7701 238.291 106.424 235.755 116.079 233.219C127.06 230.333 138.042 227.449 149.023 224.563C151.977 223.787 154.932 223.011 157.886 222.235C162.739 220.96 166.957 218.365 169.629 214C171.789 210.473 172.661 206.251 172.084 202.158C171.876 200.68 171.453 199.238 171.08 197.795C169.698 192.452 168.318 187.11 166.936 181.766C166.05 178.339 165.164 174.914 164.28 171.487C164.017 170.473 162.444 170.903 162.708 171.921C164.974 180.69 167.242 189.461 169.509 198.229C169.885 199.688 170.334 201.162 170.52 202.658C171.044 206.899 169.834 211.26 167.217 214.634C164.519 218.11 160.795 219.785 156.691 220.864C148.292 223.07 139.893 225.276 131.495 227.484C120.269 230.433 109.044 233.382 97.819 236.331C93.9567 237.345 90.0929 238.361 86.2306 239.375C83.7487 240.027 81.2441 240.838 78.6597 240.877C71.1612 240.99 64.6166 235.847 62.6636 228.673C62.4104 227.741 62.1723 226.805 61.9282 225.873C60.48 220.362 59.0319 214.851 57.5852 209.34C55.2042 200.276 52.8218 191.212 50.4408 182.146C47.5038 170.969 44.5683 159.79 41.6312 148.613C38.5571 136.911 35.4829 125.209 32.4073 113.506C29.5682 102.7 26.7291 91.8923 23.8901 81.086C21.702 72.7602 19.5154 64.4343 17.3273 56.1085C16.173 51.7173 15.0202 47.3261 13.8659 42.9348C13.0356 39.7733 12.7794 36.5846 13.6881 33.3839C15.3563 27.5053 20.0459 23.4381 25.8476 21.9145C33.2677 19.9646 40.6894 18.0161 48.1096 16.0661C59.4704 13.0809 70.8327 10.0971 82.1935 7.11189C88.4955 5.45576 94.7855 3.74538 101.103 2.14501C108.883 0.173939 117.182 4.09951 120.301 11.58C121.8 15.1755 122.479 19.2578 123.463 23.0086C125.333 30.1259 127.212 37.2401 129.067 44.3604C131.763 54.704 134.459 65.0492 137.155 75.3928C137.822 77.9561 138.491 80.5194 139.159 83.0827C139.423 84.0969 140.996 83.6674 140.731 82.6487L140.732 82.6412Z" fill="black"/>
<path d="M158.423 150.798C157.137 145.44 155.848 140.081 154.561 134.724C154.316 133.704 152.744 134.136 152.989 135.158C154.276 140.516 155.565 145.875 156.852 151.232C157.097 152.253 158.669 151.82 158.423 150.798Z" fill="black"/>
<path d="M157.1 171.916C159.27 180.53 161.44 189.144 163.611 197.756C163.949 199.094 164.291 200.432 164.623 201.772C165.61 205.75 164.496 209.96 161.354 212.693C159.183 214.579 156.478 215.102 153.797 215.806C145.01 218.114 136.221 220.423 127.434 222.733C116.577 225.586 105.719 228.439 94.8619 231.291C91.3085 232.225 87.7552 233.158 84.2003 234.093C81.2422 234.87 78.4438 235.731 75.3425 234.801C71.4154 233.624 68.938 230.428 67.9299 226.592C67.5592 225.184 67.19 223.775 66.8193 222.366C65.2219 216.284 63.6231 210.202 62.0257 204.12C59.6056 194.906 57.1839 185.693 54.7638 176.478C51.8795 165.497 48.9937 154.516 46.1094 143.535C43.1106 132.123 40.1133 120.71 37.1145 109.298C34.39 98.9292 31.6669 88.5599 28.9424 78.1922C26.8432 70.2009 24.7441 62.2111 22.6449 54.2198C21.5313 49.9808 20.4176 45.7403 19.304 41.5012C18.546 38.614 18.4556 35.6875 19.8812 32.9388C21.3113 30.1811 23.8022 28.2929 26.7739 27.4792C27.4219 27.3014 28.0744 27.1371 28.7254 26.9668C36.9442 24.8074 45.1631 22.6479 53.3819 20.4885C64.3946 17.5952 75.4073 14.7019 86.42 11.8085C90.3426 10.7778 94.2667 9.74704 98.1892 8.71629C99.8891 8.27024 101.595 7.72472 103.323 7.39621C107.915 6.52068 112.606 8.84589 114.757 12.9779C115.264 13.9529 115.548 14.9821 115.823 16.034C116.55 18.8007 117.278 21.5675 118.004 24.3357C120.733 34.7215 123.462 45.1089 126.191 55.4947C128.666 64.9115 131.14 74.3284 133.613 83.7438C134.006 85.2417 134.399 86.7396 134.794 88.239C135.061 89.2531 136.633 88.8221 136.366 87.805C134.826 81.94 133.284 76.0764 131.744 70.2114C128.789 58.9621 125.833 47.7129 122.877 36.4636C121.007 29.3448 119.157 22.2215 117.267 15.1087C115.655 9.0433 109.987 4.80729 103.62 5.70241C101.666 5.97818 99.7278 6.62617 97.8246 7.12647C88.4152 9.59785 79.0074 12.0707 69.5981 14.5421C58.825 17.3721 48.0519 20.2037 37.2773 23.0337C34.1157 23.864 30.9542 24.6959 27.7911 25.5262C23.8941 26.5494 20.4282 28.3577 18.4722 32.1175C15.9767 36.9126 17.6177 41.5043 18.867 46.2617C20.5382 52.6225 22.2094 58.9848 23.8806 65.3455C26.3881 74.8905 28.8957 84.4339 31.4032 93.9789C34.3674 105.258 37.33 116.539 40.2942 127.819C43.3291 139.371 46.3641 150.923 49.3991 162.477C52.1206 172.839 54.8436 183.199 57.5652 193.56C59.5905 201.267 61.6143 208.973 63.6396 216.68C64.583 220.268 65.5098 223.86 66.4682 227.444C67.8169 232.486 71.9564 236.293 77.2187 236.823C79.9116 237.094 82.4839 236.229 85.0502 235.556C94.1567 233.163 103.263 230.77 112.37 228.378C123.284 225.511 134.199 222.643 145.114 219.775C148.498 218.886 151.883 217.997 155.268 217.106C158.718 216.199 161.88 215.057 164.16 212.043C166.493 208.958 167.12 205.079 166.199 201.363C165.864 200.016 165.521 198.67 165.182 197.325C163.815 191.9 162.448 186.476 161.081 181.051C160.278 177.863 159.475 174.674 158.67 171.484C158.414 170.467 156.841 170.898 157.098 171.918L157.1 171.916Z" fill="black"/>
<path d="M147.84 137.907C149.168 142.96 150.495 148.014 151.823 153.067C152.09 154.081 153.662 153.65 153.395 152.633C152.067 147.58 150.74 142.526 149.412 137.473C149.145 136.459 147.573 136.89 147.84 137.907Z" fill="black"/>
<path d="M140.029 108.116C140.735 110.857 141.441 113.598 142.147 116.341C142.41 117.356 143.981 116.925 143.719 115.907C143.012 113.166 142.307 110.425 141.6 107.682C141.338 106.666 139.766 107.097 140.029 108.116Z" fill="black"/>
<path d="M107.034 239.81C109.558 237.726 112.084 235.64 114.608 233.556C115.417 232.887 114.258 231.741 113.455 232.404C110.931 234.488 108.405 236.573 105.881 238.657C105.072 239.326 106.231 240.473 107.034 239.81Z" fill="black"/>
<path d="M144.538 116.402C149.481 111.838 159.354 104.368 164.469 112.732C168.515 119.35 162.264 126.157 157.478 130.257C154.894 132.471 152.096 134.409 149.247 136.264C148.372 136.835 149.187 138.247 150.07 137.671C156.071 133.761 162.914 129.132 166.106 122.478C167.698 119.156 167.912 115.465 166.05 112.198C163.869 108.373 160.06 106.573 155.753 107.572C151.015 108.672 146.883 112.017 143.387 115.248C142.614 115.961 143.77 117.112 144.54 116.401L144.538 116.402Z" fill="black"/>
<path d="M152.436 152.097C147.094 152.849 138.414 155.949 139.667 162.887C141.094 170.794 149.956 171.763 156.458 171.778C157.507 171.779 157.509 170.15 156.458 170.147C150.812 170.135 142.798 169.656 141.306 162.789C139.994 156.743 148.456 154.29 152.87 153.669C153.904 153.523 153.464 151.953 152.436 152.097Z" fill="black"/>
</svg>
