<?xml version="1.0" encoding="UTF-8"?>
<svg xmlns="http://www.w3.org/2000/svg" viewBox="0 0 2500 2000">
  <defs>
    <style>
      .cls-1 {
        fill: #fff;
      }

      .cls-2 {
        fill: #ffe4d2;
      }

      .cls-3 {
        fill: #497b12;
      }

      .cls-4 {
        fill: #fdfdfd;
      }

      .cls-5 {
        fill: #ffa294;
      }
    </style>
  </defs>
  <g id="BG">
    <rect class="cls-1" x="0" y="0" width="2500" height="2000"/>
  </g>
  <g id="Layer_1" data-name="Layer 1">
    <g>
      <path class="cls-2" d="m1373.58,1570.49c-5.48.31-11.24.99-16.79.41-.12.26-.24.5-.33.69-53.52,19.72-90.72,18.68-144.27,38.32-25.19,9.24-69.53,22.52-95.8,13.53-20.79-7.12-51.19-29.96-64.25-47.34-32.75-43.58-33.92-106.35-47.34-157.8-14.81-56.77-22.88-107.5-40.58-163.43-17.67-55.86-28.47-116.37-47.94-171.59-.39-9.18-4-17.79-6.92-26.53-3.77-11.31-7.61-22.6-11.31-33.94-7.03-21.54-13.81-43.16-20.34-64.86-13.05-43.39-25.11-87.09-36.14-131.04-10.88-43.36-20.9-86.95-29.99-130.72-9.09-43.77-15.81-88.57-30.11-131.04-5.55-16.47-14.54-37.48-36.02-32.85-5.58,1.2-10.44,3.96-14.37,7.78-.45-1.77-3.28-2.55-4.15-.62-6.21,13.76-11.27,27.31-15.17,41.88-4.1,15.3-7.88,30.66-11.63,46.04-7.03,28.84-12.94,58.4-23.86,86.09-10.13,25.7-24.15,50.56-26.25,78.63-2.17,29.08,13.81,49.81,28.92,72.78,30.59,46.52,44.52,100.73,55.54,154.66,12.29,60.16,23.56,120.55,35.55,180.77,6.57,33.02,11.6,66.96,22.23,98.98,3.16,9.53,6.88,19.38,11.24,29.04-12.55,41.15-23.39,82.78-38.55,123.14-16.55,44.05-36.34,86.72-59.79,127.54-11.68,20.32-24.21,40.15-37.54,59.43-6.67,9.64-13.54,19.14-20.61,28.49-6.73,8.9-15.77,17.86-16.57,29.59-1.4,20.32,23.76,38.3,37.96,49.06,118.94,90.21,273.6,133.47,421.04,138.38,23.6.79,48.02,1.9,70.21-7.54,42.97-18.28,59.15-64.32,78.38-102.98,11.96-24.04,22.65-46.96,39.06-68.02,14.77-18.96,24.76-37.64,34.06-59.82,8.01-19.08,23.02-38.97,38.83-53.22,8.31-7.49,19.77-10.23,27.77-18.12,1.26-1.24,2.37-2.57,3.36-3.97-2.55-.1-5.12.04-7.55.17Z"/>
      <path class="cls-2" d="m1573.69,328.37c-5.55-18.69-19.46-33.86-37.56-41.02-15.13-5.98-37.6-6.7-47.66,7.51-4.69.51-8.81,4.45-7.34,10.8,11.12,48.24,33.6,94.24,38.4,143.93.78,8.05,10.15,10.66,14.89,4.03,13.31-18.6,26.6-37.68,33.51-59.72,6.29-20.07,11.91-44.81,5.76-65.52Z"/>
      <path class="cls-2" d="m1670.89,561.69c-17.65-13.63-41.72-25.22-64.33-18.55-14.34,4.23-26.99,13.35-38.56,23.61-5.73,3.37-10.91,7.58-16.22,11.89-8.65,7.03-17.19,14.25-25,22.21-14.49,14.78-26.83,31.78-33.91,51.37-7.34,20.3-5.28,41.22,8.21,58.34,5.6,7.11,12.7,13.91,20.83,18.07,10.66,5.46,22.14,4.92,33.73,3.74,22.64-2.32,42.71-8.49,61.25-21.97,17.86-12.98,34.52-27.61,49.81-43.54,14.15-14.75,32.54-33,33.43-54.77.83-20.36-13.99-38.62-29.25-50.4Z"/>
      <path class="cls-2" d="m1717.71,769.98c-10.85-18.03-29.09-27.81-49.63-29.84-3.15-.31-5.65,1.12-7.3,3.31-25.02,1.42-50.28,19.03-69.32,38.19-13.62,8.92-26.53,19.33-39.09,29.17-17.67,13.86-35.03,28.46-50.97,44.3-13.52,13.44-25.91,30.3-24.11,50.38,1.74,19.41,16.79,39.79,31.24,52.22,35.2,30.28,82.81-5.93,111.34-27.95,19.66-15.17,39.65-30.06,58.66-46.04,15.85-13.32,32.33-28.06,41.02-47.28,9.44-20.87,10.21-46.4-1.85-66.45Z"/>
      <path class="cls-2" d="m1809.24,1069.92c-3.7-27.03-23.76-43.95-48.56-46.84-29.12-3.39-59.99.89-88.72,5.79-16.56,2.83-32.97,6.57-49.1,11.27-7.79,2.27-15.52,4.73-23.18,7.4-6.92,2.42-14.77,4.38-20.38,9.28-5.88,2.68-10.53,9.72-14,17.43-5.54-.1-11.69,4.53-10.28,11.71.92,5.33,1.68,10.71,3.02,15.95.04.17.12.31.17.48,2,8.58,4.99,16.74,11.46,23.54,9.98,10.48,25.91,16.67,39.03,21.92,16.08,6.44,33.1,8.64,50.34,8.57,14.75-.06,30.05-2.18,44.87-.86,4.8,7.63,7.37,16.73,8.43,25.63.75,6.3,7.39,12.18,13.78,7.91,22.13-14.8,41.74-32.91,58.05-53.96,15.33-19.79,28.67-38.88,25.06-65.21Z"/>
      <path class="cls-5" d="m1507.74,621.42c-12.11,23.69,2.3,54.86,26,66.95,23.69,12.1,52.92,8.26,76.98-3.09,36.32-17.14,63.47-49.62,82.53-84.98,3.08,24.57-6.68,49.5-22.17,68.82-15.49,19.31-36.3,33.66-57.76,46.01-16.99,9.78-35.06,18.64-54.54,20.9-19.48,2.26-40.76-3.07-53.65-17.85-10.65-12.21-14.33-29.49-12.18-45.55,2.15-16.06,9.64-31,14.79-51.22Z"/>
      <path class="cls-5" d="m1502.88,859.5c-4.02,13.34,1.43,28.34,11.36,38.12,9.93,9.78,23.66,14.89,37.43,17.03,36.63,5.68,74.28-8.43,103.55-31.19,29.26-22.76,51.22-53.51,70.81-84.98.7,21.49-8.39,42.38-21.29,59.58-12.9,17.2-29.47,31.24-45.89,45.12-25.76,21.79-52.14,43.94-83.54,56.31-15.03,5.92-31.56,9.48-47.39,6.24-22.89-4.69-41.7-24.32-46.39-47.21-4.69-22.89,4.46-47.83,21.33-59.03Z"/>
      <path class="cls-5" d="m1583.73,1055.04c-7.57,7.37-7.72,20.12-2.67,29.4,5.04,9.29,14.16,15.66,23.56,20.5,24.31,12.54,52.05,17,79.39,18,22.59.83,45.52-.64,67.03-7.6,21.5-6.96,41.58-19.79,54.42-38.4-3.44,50.37-38.48,97.21-85.83,114.73-4.25-11.48-8.49-22.97-12.74-34.45-32.33.72-65.3,1.03-96.21-8.5-20.95-6.46-41.86-18.87-50.07-39.19-8.22-20.32,2.75-48.56,23.14-54.51Z"/>
      <path class="cls-5" d="m1481.95,302.99c9.46-1.31,19.46-1.93,28.23,1.85,8.99,3.88,15.51,11.91,20.6,20.27,24.6,40.43,21.45,95.93-7.57,133.32-.26-24.98-8.28-49.16-16.21-72.85-8.92-26.65-17.84-53.3-25.06-82.59Z"/>
      <path class="cls-5" d="m750.86,532.06c30.26,36.57,33.06,88.16,31.08,135.59-1.82,43.52-6.49,86.92-13.96,129.84-1.51,8.69-3.14,17.57-1.62,26.26,1.57,8.97,6.38,17.01,11.48,24.56,23.75,35.21,55.73,64.84,92.64,85.84-21.54-125.7-52.54-249.78-92.65-370.84-4-12.06-9.36-25.49-26.97-31.25Z"/>
      <path class="cls-5" d="m1090.35,1612.91c36.96,8.56,70.36,31.62,91.48,63.13,26.89,40.14,32.97,90.23,38.32,138.24,9.56-40.83,36.49-74.96,56.77-111.66,26.52-47.99,45.71-105.65,93.93-131.75-36.37,10.81-72.73,21.63-109.1,32.44-51.5,15.31-105.7,30.76-171.4,9.59Z"/>
      <path class="cls-3" d="m1763.32,1368.87l-55.15-208.35c-15.81,2.08-31.97,2.11-47.66.92-12.43-.94-25.01-2.52-37.17-5.32-10.5-2.42-21.16-4.76-31.16-8.86-10.57-4.34-20-10.7-26.68-20.11-6.44-9.06-10.12-19.91-9.8-31.08.32-11.24,4.58-22.19,12.34-30.39,7.96-8.42,18.57-14.75,29.31-18.87,11.97-4.59,24.82-5.89,37.04-9.66,12.7-3.92,25.16-8.66,38.39-10.34l-29.88-112.9c-7.47,6.67-15.55,12.61-24.55,16.68-1.42.64-3.01.61-4.18-.29-10.46,10.44-20.99,21.07-32.62,30.12-12.62,9.82-27.02,16.57-43.34,14.52-12.52-1.57-24.45-5.82-34.41-13.69-17.63-13.94-24.2-37.03-21.05-58.72,1.67-11.46,6.1-22.58,12.54-32.19,4.05-6.04,8.92-11.28,14.06-16.4,6.77-6.76,13.79-13.27,20.93-19.66,13.6-12.17,27.36-24.25,41.48-35.81,6.51-5.33,13.07-10.63,19.22-16.38,4.81-4.5,9.51-9.28,13.11-14.81l-11.11-41.98c-11.52,5.25-23.79,8.6-36.8,8.72-13.35.13-26.95-2.96-39-8.69-8.42-4-16.13-9.72-21.41-17.49-9.65-14.22-7.87-32.39-2.42-47.83,6.47-18.34,17.37-34.97,29.11-50.34,9.47-12.4,19.76-24.15,30.54-35.43l-126.76-478.89c-20.68-56.41-87.54-73.52-112.81-66.75l-552.77,142.89c-25.27,6.77-63.18,80.02-56.41,105.29l337.49,1294.43c6.77,25.27,88.38,64.06,113.64,57.28l545.12-144.13c25.27-6.77,67.45-59.13,62.83-115.49Z"/>
      <path class="cls-4" d="m1720.75,1347.09l-50.64-187.52c-14.86,1.96-24.56-2.41-39.3-3.53-11.68-.89-23.46-5.32-34.89-7.95-9.87-2.27-16-16.22-25.39-20.08-9.93-4.08-6.75-13.91-13.03-22.75-6.05-8.51-4.27-14.24-3.97-24.73.3-10.56,6.41-7.31,13.69-15.02,7.48-7.91,15.52-10.7,25.61-14.57,11.25-4.32,14.57-7.06,26.06-10.6,11.93-3.68,6.55-4.17,18.99-5.74l-27.82-97.16c-7.02,6.27-1.7,1.04-10.16,4.86-1.33.6-9.5,6.14-10.6,5.3-9.83,9.81-13.8,10.48-24.73,18.99-11.86,9.23-29.41,1.44-44.75-.48-11.76-1.47-15.67-13.31-25.02-20.71-16.57-13.1-19.3-28.2-16.34-48.58,1.57-10.77,4.99-18.79,11.04-27.82,3.8-5.68,7.54-8.87,12.37-13.69,6.36-6.36,12.73-11.67,19.43-17.66,12.78-11.44,23.39-21.82,36.65-32.68,6.12-5.01,10.56-4.31,16.34-9.72,4.52-4.23-8.69-9.37-5.3-14.57l-10.6-45.49c-10.83,4.93-11.62-.12-23.85,0-12.55.12-16.05-6.99-27.38-12.37-7.91-3.76-7.85-16.1-12.81-23.41-9.07-13.36-7.33-18.61-2.21-33.12,6.08-17.24,1.83-28.97,12.86-43.41,8.9-11.65,7.48-14.88,17.61-25.48l-122.6-464.39c-17.83-66.87-71.53-73.34-95.28-66.98l-528.28,144.33c-23.74,6.36-39.38,63.99-33.02,87.73l320.74,1226.36c6.36,23.74,47.01,73.34,70.75,66.98l539.6-140.56c23.74-6.36,55.66-36.79,46.22-103.77Z"/>
      <g>
        <path d="m807.54,699.47c-2.72,34.97-9.23,69.47-16.59,103.72-1.46,6.79,8.97,9.69,10.43,2.88,7.56-35.19,14.18-70.66,16.98-106.59.54-6.94-10.28-6.91-10.82,0h0Z"/>
        <path d="m661.5,753.39c23.53-39.7,35.42-84.61,46.1-129.13,5.23-21.79,9.29-44.43,16.57-65.64,2.92-8.51,8.51-19.92,18.29-21.9,11.36-2.29,20.69,9.15,27.31,16.77,4.57,5.26,12.2-2.41,7.65-7.65-12.29-14.14-30.84-28.49-48.64-14.04-17.28,14.03-20.18,41.97-25.06,62.15-12.71,52.6-23.64,106.87-51.56,153.98-3.56,6,5.79,11.45,9.34,5.46h0Z"/>
        <path d="m649.72,753.42c-18.03,32.5-2.99,67.95,13.67,97.47,19.59,34.7,37.5,70,51.31,107.44,13.58,36.81,23.6,75,29.02,113.88,5.72,41.04,7.23,82.51,14.09,123.42,7.59,45.29,19.9,89.65,36.43,132.48,2.48,6.43,12.94,3.64,10.43-2.88-14.22-36.86-25.34-74.85-32.99-113.62-7.9-40.02-10.44-80.51-14.88-120.98-8.21-74.89-31.55-146.51-66.38-213.2-17.97-34.41-53.63-78.42-31.36-118.56,3.38-6.09-5.96-11.56-9.34-5.46h0Z"/>
        <path d="m1482.37,302.2c15.28-11.74,35.5-14.85,53.68-8.28,20.32,7.34,32.24,26.23,35.17,47.03,6.46,45.86-25.36,84.23-49.68,119.48-3.96,5.74,5.41,11.16,9.34,5.46,27.86-40.38,64.11-86.57,48.33-138.94-12.95-42.98-65.91-62.04-102.3-34.09-5.44,4.18-.06,13.58,5.46,9.34h0Z"/>
        <path d="m1558.33,740.1c24.83-3.44,47.55-15.65,68.08-29.51,19.3-13.03,37.94-27.52,52.56-45.8,13.73-17.17,25.11-38.61,23.09-61.27-1.57-17.65-10.75-33.82-23.86-45.54-13.23-11.82-30.04-19.52-47.74-21.16-20.06-1.86-37.27,6.68-54.01,16.8-36.89,22.31-71.23,56.77-87.77,97.19-8.4,20.54-9.16,44.46,4.37,63.05,14.75,20.25,39.49,28.95,63.84,26.44,6.86-.71,6.93-11.53,0-10.82-21.32,2.2-43.61-4.64-56.02-23.25-10.05-15.07-9.05-33.68-2.76-50.01,13.73-35.68,44-67,75.35-87.88,14.21-9.46,30.38-20.02,47.9-20.92,15.66-.8,31.35,4.77,43.91,13.95,12.79,9.35,22.87,23.17,25.55,39,3.58,21.23-7.49,41.99-20.46,57.99-13.84,17.07-31.29,30.67-49.41,42.9-19.86,13.41-41.47,25.1-65.49,28.42-6.87.95-3.94,11.37,2.88,10.43Z"/>
        <path d="m1544.45,813.52c-27.26,23.18-67.31,48.68-70.33,88.13-2.88,37.63,37.86,81.3,76.46,75.94,9.5-1.32,17.27-5.87,25.14-11.03,12.53-8.22,24.67-17.04,36.76-25.87,5.57-4.06.18-13.45-5.46-9.34-11.79,8.6-23.61,17.18-35.79,25.23-8.18,5.41-16.09,10.43-26.25,10.67-24.42.59-46.41-21.38-55.69-42.27-20.02-45.05,33.88-79.21,62.81-103.81,5.31-4.52-2.37-12.14-7.65-7.65h0Z"/>
        <path d="m1568.98,791.56c-6.49,5.84-12.92,11.75-19.27,17.74-5.07,4.79,2.59,12.43,7.65,7.65,6.35-5.99,12.77-11.9,19.27-17.74,5.19-4.66-2.48-12.29-7.65-7.65h0Z"/>
        <path d="m1725.22,1196.58c26.82-17.98,50.46-40.55,68.81-67.18,15.93-23.11,27.12-53.68,12.88-80.43-12.7-23.86-41.37-30.12-66.2-30.56-35.35-.63-71.56,5.41-105.97,13-6.8,1.5-3.92,11.93,2.88,10.43,30.34-6.7,61.29-11.32,92.36-12.49,22.81-.86,52.75.93,66.17,22.61,15.76,25.47.63,55.68-15.02,76.99-16.82,22.89-37.8,42.51-61.36,58.3-5.75,3.86-.34,13.23,5.46,9.34h0Z"/>
        <path d="m1667.85,1162.52c20.33.06,40.66.12,60.99.17,6.96.02,6.97-10.8,0-10.82-20.33-.05-40.66-.11-60.99-.17-6.96-.02-6.97,10.8,0,10.82h0Z"/>
        <path d="m797.18,1332.68c-1.59,15.33-7.63,30.66-12.82,45.04-8.66,24.04-18.56,47.63-28.88,70.99-24.22,54.88-50.83,108.83-80.12,161.18-14.4,25.74-29.45,51.22-46.42,75.37-4.01,5.71,5.36,11.12,9.34,5.46,32.56-46.34,59.23-97.04,84.57-147.59,25.59-51.07,49.95-103.15,69.82-156.75,6.38-17.22,13.41-35.29,15.32-53.7.72-6.92-10.11-6.87-10.82,0h0Z"/>
        <path d="m1320.98,1611.53c-33.92,61.41-67.2,123.18-100.82,184.76-7.38,13.51-14.75,27.02-22.19,40.49-3.37,6.1,5.97,11.56,9.34,5.46,33.92-61.41,67.2-123.18,100.82-184.76,7.38-13.51,14.75-27.02,22.19-40.49,3.37-6.1-5.97-11.56-9.34-5.46h0Z"/>
        <path d="m1609.59,767.34c-3.32-13.44-6.63-26.89-9.95-40.33-1.67-6.76-12.1-3.89-10.43,2.88,3.32,13.44,6.63,26.89,9.95,40.33,1.67,6.76,12.1,3.89,10.43-2.88h0Z"/>
        <path d="m1557.36,570.72c-14.83-56.89-29.65-113.78-44.48-170.67-11.36-43.6-22.69-87.21-34.14-130.79-9.67-36.82-19.35-73.64-29.02-110.46-7.22-27.5-12.18-58.54-27.91-82.69-27.94-42.89-80.77-62.58-130.09-50.09-12.91,3.27-25.76,6.77-38.63,10.15-67.45,17.72-134.9,35.44-202.35,53.16-70.51,18.52-141.02,37.05-211.52,55.57-16.29,4.28-32.58,8.52-48.86,12.84-40.12,10.64-72.67,39.7-85.4,79.61-11.43,35.84-1.01,68.48,7.99,102.76,11.53,43.9,23.07,87.79,34.6,131.69,17.31,65.9,34.63,131.8,51.94,197.69,20.33,77.38,40.66,154.75,60.98,232.13,20.58,78.33,41.16,156.66,61.74,234.99,18.12,68.99,36.25,137.97,54.37,206.96,12.76,48.57,25.52,97.13,38.28,145.7,5.35,20.37,9.67,41.42,16.42,61.41,17.62,52.23,70.91,86.48,125.79,80.13,15.03-1.74,29.89-6.54,44.49-10.37,64.07-16.83,128.13-33.66,192.2-50.49,72.87-19.15,145.75-38.29,218.62-57.44,19.6-5.15,39.21-10.3,58.81-15.45,32.21-8.46,60.2-25.68,77.93-54.65,14.33-23.4,20.12-51.42,16.29-78.58-1.38-9.81-4.19-19.38-6.66-28.95-9.17-35.46-18.33-70.91-27.5-106.37-5.88-22.74-11.76-45.47-17.63-68.21-1.74-6.73-12.18-3.88-10.43,2.88,15.04,58.19,30.09,116.39,45.13,174.58,2.5,9.68,5.48,19.46,6.71,29.39,3.48,28.14-4.55,57.08-21.92,79.47-17.9,23.07-42.61,34.18-69.85,41.34-55.73,14.64-111.47,29.28-167.2,43.93-74.49,19.57-148.98,39.14-223.47,58.71-25.63,6.73-51.27,13.47-76.9,20.2-16.47,4.33-33.09,9.71-50.24,9.97-49.76.75-93.19-33.38-106.15-80.99-1.68-6.18-3.26-12.39-4.88-18.58-9.61-36.57-19.22-73.14-28.82-109.71-15.8-60.15-31.61-120.3-47.41-180.46-19.49-74.17-38.97-148.35-58.46-222.52-20.4-77.66-40.8-155.31-61.21-232.97-18.84-71.71-37.68-143.43-56.52-215.14-14.52-55.25-29.03-110.5-43.55-165.75-7.66-29.14-15.31-58.28-22.97-87.42-5.51-20.98-7.21-42.14-1.18-63.38,11.07-39.01,42.19-66,80.69-76.11,49.24-12.94,98.49-25.87,147.73-38.81,75.39-19.81,150.79-39.61,226.18-59.42,41.82-10.99,83.56-22.34,125.48-32.96,51.63-13.08,106.7,12.97,127.4,62.61,9.95,23.86,14.45,50.95,20.98,75.84,12.41,47.23,24.88,94.44,37.19,141.69,17.89,68.64,35.78,137.29,53.67,205.93,4.43,17.01,8.87,34.02,13.3,51.03,1.75,6.73,12.19,3.88,10.43-2.88h0Z"/>
        <path d="m1674.76,1023.01c-8.54-35.56-17.09-71.12-25.63-106.67-1.63-6.77-12.06-3.9-10.43,2.88,8.54,35.56,17.09,71.12,25.63,106.67,1.63,6.77,12.06,3.9,10.43-2.88h0Z"/>
        <path d="m1665.98,1163.15c14.4,57.16,28.8,114.32,43.21,171.47,2.24,8.88,4.51,17.76,6.71,26.65,6.55,26.4-.84,54.34-21.69,72.47-14.41,12.52-32.36,15.99-50.15,20.66-58.31,15.32-116.63,30.64-174.94,45.97-72.05,18.93-144.1,37.86-216.15,56.79-23.58,6.2-47.16,12.39-70.75,18.59-19.63,5.16-38.2,10.87-58.78,4.7-26.06-7.81-42.5-29.02-49.19-54.47-2.46-9.35-4.91-18.7-7.37-28.05-10.6-40.36-21.21-80.72-31.81-121.08-16.06-61.14-32.13-122.28-48.19-183.43-19.14-72.87-38.29-145.74-57.43-218.61-19.9-75.73-39.79-151.46-59.69-227.19-18.08-68.81-36.15-137.62-54.23-206.42-13.93-53.03-27.86-106.05-41.79-159.08-7.39-28.13-14.78-56.27-22.17-84.4-5.03-19.16-5.63-38.58,3.83-56.82,9.49-18.3,26.02-30.83,45.74-36.23,4.3-1.18,8.63-2.27,12.95-3.4,54.54-14.33,109.08-28.66,163.62-42.99,73.08-19.2,146.16-38.4,219.24-57.6,26.03-6.84,52.07-13.68,78.1-20.52,11.28-2.96,22.6-6.58,34.07-8.76,30.47-5.81,61.6,9.62,75.87,37.04,3.37,6.47,5.25,13.3,7.08,20.28,4.82,18.36,9.65,36.72,14.47,55.09,18.11,68.92,36.22,137.85,54.33,206.77,16.42,62.49,32.84,124.98,49.25,187.46,2.61,9.94,5.22,19.88,7.84,29.83,1.77,6.73,12.2,3.87,10.43-2.88-10.22-38.92-20.45-77.83-30.67-116.75-19.61-74.65-39.23-149.3-58.84-223.95-12.41-47.24-24.69-94.51-37.23-141.71-10.7-40.25-48.31-68.36-90.56-62.42-12.97,1.83-25.83,6.13-38.46,9.45-62.44,16.4-124.87,32.81-187.31,49.21-71.49,18.78-142.98,37.57-214.48,56.35-20.98,5.51-41.96,11.03-62.95,16.54-25.86,6.79-48.86,18.79-61.84,43.74-16.56,31.82-5.67,62.29,2.62,93.86,11.09,42.21,22.18,84.43,33.27,126.64,16.64,63.34,33.28,126.67,49.92,190.01,19.67,74.85,39.33,149.71,59,224.56,20.14,76.66,40.28,153.32,60.42,229.99,18.06,68.76,36.13,137.51,54.19,206.27,13.44,51.14,26.87,102.28,40.31,153.42,6.26,23.81,12.41,47.65,18.77,71.43,8.95,33.46,36.42,58.72,71.34,62.24,17.87,1.8,34.94-3.94,51.97-8.41,60.43-15.88,120.86-31.76,181.29-47.63,72.43-19.03,144.86-38.06,217.29-57.09,22.46-5.9,44.92-11.8,67.38-17.71,22.9-6.02,43.88-13.6,59.01-33.6,15.48-20.47,19.64-46.21,13.53-70.87-2.22-8.94-4.5-17.87-6.75-26.8-9.07-36-18.14-71.99-27.21-107.99-5.33-21.16-10.66-42.32-16-63.49-1.7-6.75-12.14-3.89-10.43,2.88h0Z"/>
        <path d="m1604.53,937.46c8.81,33.53,17.62,67.07,26.43,100.6,1.77,6.73,12.2,3.87,10.43-2.88-8.81-33.53-17.62-67.07-26.43-100.6-1.77-6.73-12.2-3.87-10.43,2.88h0Z"/>
        <path d="m1552.69,739.77c4.69,18.19,9.37,36.38,14.06,54.58,1.74,6.74,12.17,3.88,10.43-2.88-4.69-18.19-9.37-36.38-14.06-54.58-1.74-6.74-12.17-3.88-10.43,2.88h0Z"/>
        <path d="m1333.74,1613.69c16.75-13.83,33.51-27.67,50.26-41.5,5.37-4.44-2.32-12.05-7.65-7.65-16.75,13.83-33.51,27.67-50.26,41.5-5.37,4.44,2.32,12.05,7.65,7.65h0Z"/>
        <path d="m1582.62,794.76c32.8-30.29,98.32-79.86,132.26-24.36,26.85,43.92-14.63,89.09-46.39,116.3-17.15,14.69-35.72,27.55-54.62,39.86-5.81,3.79-.4,13.16,5.46,9.34,39.82-25.95,85.23-56.67,106.41-100.82,10.57-22.05,11.99-46.54-.37-68.22-14.47-25.38-39.75-37.33-68.33-30.7-31.44,7.3-58.86,29.5-82.06,50.94-5.13,4.73,2.54,12.37,7.65,7.65h0Z"/>
        <path d="m1635.03,1031.63c-35.45,4.99-93.05,25.56-84.74,71.6,9.47,52.47,68.28,58.9,111.43,59,6.96.01,6.97-10.8,0-10.82-37.47-.08-90.65-3.26-100.55-48.83-8.71-40.12,47.45-56.4,76.74-60.52,6.86-.97,3.94-11.39-2.88-10.43h0Z"/>
      </g>
    </g>
  </g>
</svg>