<svg id="Layer_1" data-name="Layer 1" xmlns="http://www.w3.org/2000/svg" xmlns:xlink="http://www.w3.org/1999/xlink" viewBox="0 0 1200 1200"><defs><style>.cls-1,.cls-2,.cls-3{fill-rule:evenodd;}.cls-1{fill:url(#linear-gradient);}.cls-2{fill:url(#linear-gradient-2);}.cls-3{fill:url(#linear-gradient-3);}.cls-4{fill:url(#linear-gradient-4);}.cls-5{fill:url(#linear-gradient-5);}.cls-6{fill:url(#linear-gradient-6);}.cls-7{fill:#36a3ca;}.cls-8{fill:#68ac1e;}</style><linearGradient id="linear-gradient" x1="39781.97" y1="-12570.3" x2="40620.22" y2="-11527.03" gradientTransform="matrix(0.07, 0, 0, -0.07, -2752.45, -283.73)" gradientUnits="userSpaceOnUse"><stop offset="0" stop-color="#3c9329"/><stop offset="1" stop-color="#dbee00"/></linearGradient><linearGradient id="linear-gradient-2" x1="40174.1" y1="-12718" x2="41012.34" y2="-11674.72" xlink:href="#linear-gradient"/><linearGradient id="linear-gradient-3" x1="40358.5" y1="-12506.81" x2="40176.23" y2="-12698.49" gradientTransform="matrix(0.07, 0, 0, -0.07, -2752.45, -283.73)" gradientUnits="userSpaceOnUse"><stop offset="0" stop-color="#abcc29"/><stop offset="1" stop-color="#64aa1f"/></linearGradient><linearGradient id="linear-gradient-4" x1="144.37" y1="521.82" x2="82.75" y2="585.62" gradientUnits="userSpaceOnUse"><stop offset="0" stop-color="#93d3d8"/><stop offset="0.72" stop-color="#0489c3"/></linearGradient><linearGradient id="linear-gradient-5" x1="175.03" y1="543.47" x2="95.79" y2="625.52" gradientUnits="userSpaceOnUse"><stop offset="0" stop-color="#93d3d8"/><stop offset="0.81" stop-color="#0489c3"/></linearGradient><linearGradient id="linear-gradient-6" x1="168.74" y1="599" x2="86.55" y2="544.2" gradientUnits="userSpaceOnUse"><stop offset="0.04" stop-color="#0489c3"/><stop offset="0.31" stop-color="#93d3d8"/></linearGradient></defs><path class="cls-1" d="M129.78,649.37A49.78,49.78,0,0,1,80,599.59c0-25,19.15-42,35.06-60.24-12.23,20.89-29.29,32-29.29,60.48,0,25.73,19.28,46.58,43.07,46.58,16.57,0,31-10.13,38.16-25-8.16,10.68-19,18.47-34.16,19.94-3.72-34.63,32.48-30,46.82-44.63,0,28.94-20.08,52.62-49.88,52.62Z"/><path class="cls-2" d="M132.84,641.38c-3.72-34.63,32.48-30,46.82-44.63C167.1,618.53,141.06,607.78,132.84,641.38Z"/><path class="cls-3" d="M165.31,609.77c-9.34,5.68-20.52,7-29.66,23.14C142.45,617.41,154.59,615.22,165.31,609.77Z"/><path class="cls-4" d="M139.42,536.77a39.33,39.33,0,0,1-2.85,6.84c-3.45,6.49-9.48,13-23.56,25-8.48,7.24-17.11,14.62-22.82,23.09,6.56-27.46,39.34-68.12,39.34-68.12q10.33-12.76,10.1-13h0A46.34,46.34,0,0,1,139.42,536.77Z"/><path class="cls-5" d="M161.86,558.26h0a46.88,46.88,0,0,1-.44,5.42c-2.41,17.43-11.5,24.8-22.36,33.68-17.9,14.63-20,18.73-21,23.71-1.28,6.37,1.07,12.21,3.08,15.94-4-1.26-15.25-5.38-20.56-16.13-6.85-13.86.17-29.72,2.69-32.84,13-16.14,38.76-30.11,46.32-49.4a30.66,30.66,0,0,0,2-8.66C156.83,535.46,162.2,545.11,161.86,558.26Z"/><path class="cls-6" d="M169.19,566.38c1.13,1.89-2.72,10.22-3.49,12.2a78.75,78.75,0,0,1-6.31,12.67,110.23,110.23,0,0,1-18.26,22.25l23.72-17.42c4.55-3.34,8.46-6.92,9.05-12.81S172.24,571.47,169.19,566.38Z"/><path class="cls-7" d="M206.66,638.21V554.47a9.75,9.75,0,0,1,9.78-9.79H226v34.8h38.61v-34.8h19.58v93.53H264.57v-41.6H226v41.6Z"/><path class="cls-7" d="M298.28,663.77V648.82h5.17q5.43,0,8.57-2.59t1.22-8.29L288,565.89h20.94L323.57,617l12.78-44.59c1.09-4.35,4-6.53,8.7-6.53H358.1l-27.73,82.38q-3.27,9-8.16,12.78-4.89,3.27-16,3.27h-3.81a9.37,9.37,0,0,0-2-.41A16.86,16.86,0,0,0,298.28,663.77Z"/><path class="cls-7" d="M409.22,544.41h9.24a8.69,8.69,0,0,1,6.53,2.86,9,9,0,0,1,2.72,6.38v53q0,19.32-11.15,26.11a45.67,45.67,0,0,1-24.2,6.79,42.8,42.8,0,0,1-13.87-2.31,22.85,22.85,0,0,1-10.87-7.47q-7.89-10.06-7.89-27.47,0-17.13,7.89-27.46,8.16-10.61,20.93-10.6a25.4,25.4,0,0,1,12,2.72,25.91,25.91,0,0,1,8.7,8.43Zm-31,57.1q0,10.88,4.08,16.58T394,623.8a13.22,13.22,0,0,0,11.42-5.71q3.81-5.7,3.81-16.58,0-9.79-4.08-15.5a14.22,14.22,0,0,0-11.69-5.44,13,13,0,0,0-11.15,5.71Q378.22,591.72,378.22,601.51Z"/><path class="cls-7" d="M478.82,544.41h9.25a8.67,8.67,0,0,1,6.52,2.86,9,9,0,0,1,2.72,6.38v53q0,19.32-11.15,26.11a45.62,45.62,0,0,1-24.2,6.79,42.79,42.79,0,0,1-13.86-2.31,22.88,22.88,0,0,1-10.88-7.47q-7.89-10.06-7.88-27.47,0-17.13,7.88-27.46,8.16-10.61,20.94-10.6a25.33,25.33,0,0,1,12,2.72,25.73,25.73,0,0,1,8.7,8.43Zm-31,57.1q0,10.88,4.07,16.58t11.7,5.71A13.23,13.23,0,0,0,475,618.09q3.8-5.7,3.8-16.58,0-9.79-4.08-15.5a14.2,14.2,0,0,0-11.69-5.44,13,13,0,0,0-11.15,5.71Q447.84,591.72,447.83,601.51Z"/><path class="cls-7" d="M500.57,638.21V603.14q0-10.6,3.13-17.81a29.53,29.53,0,0,1,8.57-11.56,33.75,33.75,0,0,1,12.09-6,54.09,54.09,0,0,1,14.28-1.9h2.72v19.3H535.1c-5.26,0-9.15,1.28-11.69,3.81s-3.8,6.53-3.8,12v37.25Z"/><path class="cls-7" d="M552.23,631.69a26.9,26.9,0,0,1-8.15-13.19,60.71,60.71,0,0,1-2.45-17.26,54.68,54.68,0,0,1,2-14.69,30.29,30.29,0,0,1,6.39-12.23,28.17,28.17,0,0,1,18.22-9.65,42,42,0,0,1,20.12,1.76,27.75,27.75,0,0,1,15.22,14.14,45.13,45.13,0,0,1,4.62,20.94,51.67,51.67,0,0,1-1.9,15,38.49,38.49,0,0,1-4.89,10.61,27.12,27.12,0,0,1-16.59,11.14,37,37,0,0,1-18.08.41Q557.66,636.58,552.23,631.69Zm13-47.85q-5.7,6.25-5.16,18.62t4.62,17.27a12.24,12.24,0,0,0,5.71,3.67,13.06,13.06,0,0,0,8.29.27q4.21-1.23,7.48-6.12t3.53-15.77q0-9.79-3.12-14.68t-7.21-6.26a13.2,13.2,0,0,0-8.15-.13A14.12,14.12,0,0,0,565.28,583.84Z"/><path class="cls-7" d="M620.21,631.69a26.84,26.84,0,0,1-8.16-13.19,60.71,60.71,0,0,1-2.45-17.26,54.68,54.68,0,0,1,2-14.69A30.29,30.29,0,0,1,618,574.32a28.17,28.17,0,0,1,18.22-9.65,41.94,41.94,0,0,1,20.12,1.76,27.77,27.77,0,0,1,15.23,14.14,45.13,45.13,0,0,1,4.62,20.94,51.64,51.64,0,0,1-1.91,15,38.49,38.49,0,0,1-4.89,10.61,27.12,27.12,0,0,1-16.59,11.14,37,37,0,0,1-18.08.41Q625.65,636.58,620.21,631.69Zm13-47.85q-5.71,6.25-5.17,18.62t4.62,17.27a12.3,12.3,0,0,0,5.71,3.67,13.09,13.09,0,0,0,8.3.27q4.21-1.23,7.47-6.12t3.54-15.77q0-9.79-3.13-14.68t-7.2-6.26a13.23,13.23,0,0,0-8.16-.13A14,14,0,0,0,633.26,583.84Z"/><path class="cls-8" d="M712.65,639.61V548.8a10.55,10.55,0,0,1,10.61-10.61h10.32v37.74h41.86V538.19h21.23V639.61H775.44V594.5H733.58v45.11Z"/><path class="cls-8" d="M850.91,636.36a36.08,36.08,0,0,1-13.11,4,117.77,117.77,0,0,1-12.24.74A30.87,30.87,0,0,1,807,635.33q-8-5.75-8-19,0-12.39,7.22-17.69t18.43-7.08a17.52,17.52,0,0,0,3.53-.44,47.66,47.66,0,0,1,4.72-.74q13-1.77,13-7.66,0-4.43-4.57-5.75a30.16,30.16,0,0,0-8.4-1.33,21.62,21.62,0,0,0-7.37,1.18,8.05,8.05,0,0,0-4.72,4.42H801.09a22.66,22.66,0,0,1,8.26-15q7.95-6.78,22.7-6.78,16.5,0,24.76,5.6a18.92,18.92,0,0,1,8.55,16.51v26.83q0,11.79-4.27,18.42A26.21,26.21,0,0,1,850.91,636.36ZM846.2,600.1a55.67,55.67,0,0,1-11.5,3.83l-6.78,1.48q-5.31,1.47-7.67,3.83a12.06,12.06,0,0,0-2.06,6.49,9.56,9.56,0,0,0,2.65,7.07c1.77,1.58,4.32,2.36,7.67,2.36q8.25,0,13-4.72t4.72-13Z"/><path class="cls-8" d="M868.31,639.61v-38q0-11.49,3.39-19.31A32,32,0,0,1,881,569.73a36.58,36.58,0,0,1,13.12-6.48,58.41,58.41,0,0,1,15.47-2.07h2.95v20.94h-6.78q-8.55,0-12.68,4.12t-4.12,13v40.39Z"/><path class="cls-8" d="M963,639.61H942L914.6,561.18h21.81L952,616.32l13.85-48.06q2.37-7.08,9.44-7.08h15.33Z"/><path class="cls-8" d="M1048.74,615.43h14.74q-3.24,12.39-12.38,18.87-9.15,6.78-23,6.78-16.8,0-26.24-10.91-9.43-10.6-9.43-30.36,0-18.87,9.14-29.49,9.43-10.91,26.24-10.9,17.68,0,27.42,10.61,9.42,10.9,9.43,30.36v3.25a5,5,0,0,1-.3,2.06h-51q.28,9.15,4.42,13.56,3.84,4.72,11.5,4.72a16.76,16.76,0,0,0,8.55-2.06,4.17,4.17,0,0,0,1.62-1l1.62-1.63a6.37,6.37,0,0,1,2.22-2.35A8.71,8.71,0,0,1,1048.74,615.43Zm-35.38-23h30.07q-.59-7.95-4.12-11.79-3.84-4.12-10.91-4.13a14.38,14.38,0,0,0-10.62,4.13Q1013.66,584.78,1013.36,592.43Z"/><path class="cls-8" d="M1066.13,613.66h20c.19,3.94,1.67,6.88,4.42,8.85q4.43,2.94,11.8,3a19,19,0,0,0,9.14-2.07,6.27,6.27,0,0,0,3.53-5.6q0-5.31-12.38-8a56.31,56.31,0,0,1-8-1.77q-15.63-3.82-20.93-9.14-5.91-5.31-5.9-14.15a23.47,23.47,0,0,1,8.55-18.57q8.85-6.78,23-6.78,15.33,0,24.47,6.78a25.94,25.94,0,0,1,9.14,19.16h-12.68a9.36,9.36,0,0,1-8.55-5l-2.36-2.36q-3.54-2.65-9.73-2.65-5.9,0-8.84,1.76a6,6,0,0,0-2.66,5.31q0,4.73,15.34,8a30.63,30.63,0,0,0,3.09.89,12,12,0,0,0,2.51.29q15,3.84,20.93,8.84,5.6,5.31,5.6,14.16,0,13-9.43,20-8.85,6.49-26.54,6.49-16.8,0-25.06-6.78-8.55-6.78-8.55-19.75Z"/><path class="cls-8" d="M1173.74,639.61a153.57,153.57,0,0,1-21.08-.3q-11.36-.88-11.35-14.44V538.19h10.62a9.32,9.32,0,0,1,6.78,2.95,9.65,9.65,0,0,1,3,7.07v13.27h12.08v4.13a9.54,9.54,0,0,1-2.94,7.22,9.92,9.92,0,0,1-7.08,2.8h-2.06v43.63q0,5,5.89,5h6.19Z"/></svg>