<?xml version="1.0" encoding="utf-8"?>
<!-- Generator: Adobe Illustrator 27.5.0, SVG Export Plug-In . SVG Version: 6.00 Build 0)  -->
<svg version="1.1" xmlns="http://www.w3.org/2000/svg" xmlns:xlink="http://www.w3.org/1999/xlink" x="0px" y="0px"
	 viewBox="0 0 500 500" style="enable-background:new 0 0 500 500;" xml:space="preserve">
<g id="BACKGROUND">
	<rect x="0.001" y="0.002" style="fill:#FFFFFF;" width="500" height="500.002"/>
</g>
<g id="OBJECTS">
	<g>
		<g>
			<path style="fill:#FFD373;" d="M420.11,258.935c0,17.264-13.995,31.26-31.26,31.26c-17.265,0-31.261-13.996-31.261-31.26
				c0-17.265,13.996-31.26,31.261-31.26C406.115,227.676,420.11,241.671,420.11,258.935z"/>
			<path style="fill:#EBF7FF;" d="M182.497,148.189c-1.685,0-3.324,0.174-4.915,0.486c-5.702-11.756-17.716-19.882-31.655-19.882
				c-18.446,0-33.554,14.193-35.059,32.254c-1.063-0.184-2.151-0.298-3.269-0.298c-10.618,0-19.226,8.608-19.226,19.225
				c0,10.618,8.607,19.227,19.226,19.227c6.518,0,68.532,0,74.898,0c14.083,0,25.505-11.423,25.505-25.506
				C208.002,159.604,196.58,148.189,182.497,148.189z"/>
			<path style="fill:#EBF7FF;" d="M157.047,282.051c-1.684,0-3.324,0.174-4.915,0.486c-5.702-11.756-17.716-19.882-31.655-19.882
				c-18.445,0-33.555,14.194-35.059,32.254c-1.063-0.183-2.151-0.298-3.269-0.298c-10.618,0-19.226,8.608-19.226,19.225
				c0,10.618,8.608,19.227,19.226,19.227c6.518,0,68.532,0,74.897,0c14.082,0,25.505-11.422,25.505-25.506
				C182.552,293.467,171.129,282.051,157.047,282.051z"/>
			<path style="fill:#EBF7FF;" d="M397.328,267.012c-1.686,0-3.325,0.174-4.916,0.487c-5.701-11.757-17.715-19.883-31.654-19.883
				c-18.447,0-33.555,14.194-35.06,32.255c-1.063-0.184-2.151-0.299-3.268-0.299c-10.618,0-19.226,8.608-19.226,19.225
				c0,10.618,8.607,19.227,19.226,19.227c6.518,0,68.533,0,74.898,0c14.082,0,25.504-11.422,25.504-25.506
				C422.832,278.428,411.41,267.012,397.328,267.012z"/>
		</g>
		<g>
			<g>
				<polygon style="fill:#F7CDBA;stroke:#213D8C;stroke-linecap:round;stroke-linejoin:round;" points="135.741,372.885 
					135.741,401.426 130.203,397.633 128.287,399.591 135.741,409.38 135.741,416.56 154.471,416.56 154.471,372.885 				"/>
				<polygon style="fill:#81D678;stroke:#2647A3;stroke-linecap:round;stroke-linejoin:round;" points="145.105,394.866 
					145.105,238.873 183.988,394.866 				"/>
				<polygon style="fill:#64B05B;stroke:#2647A3;stroke-linecap:round;stroke-linejoin:round;" points="145.105,394.866 
					145.105,238.873 106.224,394.866 				"/>
				<g>
					
						<line style="fill:none;stroke:#2647A3;stroke-linecap:round;stroke-linejoin:round;" x1="145.105" y1="386.005" x2="113.424" y2="365.981"/>
					
						<line style="fill:none;stroke:#2647A3;stroke-linecap:round;stroke-linejoin:round;" x1="145.105" y1="352.543" x2="120.631" y2="337.061"/>
					
						<line style="fill:none;stroke:#2647A3;stroke-linecap:round;stroke-linejoin:round;" x1="145.105" y1="319.082" x2="127.84" y2="308.142"/>
					
						<line style="fill:none;stroke:#2647A3;stroke-linecap:round;stroke-linejoin:round;" x1="145.105" y1="285.621" x2="135.049" y2="279.222"/>
				</g>
				<g>
					
						<line style="fill:none;stroke:#2647A3;stroke-linecap:round;stroke-linejoin:round;" x1="145.105" y1="379.042" x2="175.289" y2="359.967"/>
					
						<line style="fill:none;stroke:#2647A3;stroke-linecap:round;stroke-linejoin:round;" x1="145.107" y1="345.581" x2="168.08" y2="331.047"/>
					
						<line style="fill:none;stroke:#2647A3;stroke-linecap:round;stroke-linejoin:round;" x1="145.105" y1="312.119" x2="160.873" y2="302.129"/>
					
						<line style="fill:none;stroke:#2647A3;stroke-linecap:round;stroke-linejoin:round;" x1="145.105" y1="278.658" x2="153.665" y2="273.211"/>
				</g>
			</g>
			<g>
				<polygon style="fill:#F7CDBA;stroke:#213D8C;stroke-linecap:round;stroke-linejoin:round;" points="97.054,388.197 
					97.054,406.731 93.458,404.269 92.214,405.54 97.054,411.897 97.054,416.56 109.217,416.56 109.217,388.197 				"/>
				<polygon style="fill:#81D678;stroke:#2647A3;stroke-linecap:round;stroke-linejoin:round;" points="103.136,402.473 
					103.136,301.167 128.387,402.473 				"/>
				<polygon style="fill:#64B05B;stroke:#2647A3;stroke-linecap:round;stroke-linejoin:round;" points="103.136,402.473 
					103.136,301.167 77.885,402.473 				"/>
				<g>
					
						<line style="fill:none;stroke:#2647A3;stroke-linecap:round;stroke-linejoin:round;" x1="103.136" y1="396.717" x2="82.561" y2="383.713"/>
					
						<line style="fill:none;stroke:#2647A3;stroke-linecap:round;stroke-linejoin:round;" x1="103.136" y1="374.986" x2="87.241" y2="364.932"/>
					
						<line style="fill:none;stroke:#2647A3;stroke-linecap:round;stroke-linejoin:round;" x1="103.136" y1="353.256" x2="91.923" y2="346.151"/>
					
						<line style="fill:none;stroke:#2647A3;stroke-linecap:round;stroke-linejoin:round;" x1="103.136" y1="331.525" x2="96.604" y2="327.369"/>
				</g>
				<g>
					
						<line style="fill:none;stroke:#2647A3;stroke-linecap:round;stroke-linejoin:round;" x1="103.136" y1="392.195" x2="122.738" y2="379.807"/>
					
						<line style="fill:none;stroke:#2647A3;stroke-linecap:round;stroke-linejoin:round;" x1="103.138" y1="370.465" x2="118.057" y2="361.026"/>
					
						<line style="fill:none;stroke:#2647A3;stroke-linecap:round;stroke-linejoin:round;" x1="103.136" y1="348.734" x2="113.376" y2="342.246"/>
					
						<line style="fill:none;stroke:#2647A3;stroke-linecap:round;stroke-linejoin:round;" x1="103.136" y1="327.004" x2="108.695" y2="323.467"/>
				</g>
			</g>
			<g>
				<polygon style="fill:#F7CDBA;stroke:#213D8C;stroke-linecap:round;stroke-linejoin:round;" points="362.326,372.885 
					362.326,401.426 367.863,397.633 369.78,399.591 362.326,409.38 362.326,416.56 343.597,416.56 343.597,372.885 				"/>
				<polygon style="fill:#81D678;stroke:#2647A3;stroke-linecap:round;stroke-linejoin:round;" points="352.961,394.866 
					352.961,238.873 314.079,394.866 				"/>
				<polygon style="fill:#64B05B;stroke:#2647A3;stroke-linecap:round;stroke-linejoin:round;" points="352.961,394.866 
					352.961,238.873 391.844,394.866 				"/>
				<g>
					
						<line style="fill:none;stroke:#2647A3;stroke-linecap:round;stroke-linejoin:round;" x1="352.961" y1="386.005" x2="384.645" y2="365.981"/>
					
						<line style="fill:none;stroke:#2647A3;stroke-linecap:round;stroke-linejoin:round;" x1="352.963" y1="352.543" x2="377.435" y2="337.061"/>
					
						<line style="fill:none;stroke:#2647A3;stroke-linecap:round;stroke-linejoin:round;" x1="352.961" y1="319.082" x2="370.227" y2="308.142"/>
					
						<line style="fill:none;stroke:#2647A3;stroke-linecap:round;stroke-linejoin:round;" x1="352.961" y1="285.621" x2="363.019" y2="279.222"/>
				</g>
				<g>
					
						<line style="fill:none;stroke:#2647A3;stroke-linecap:round;stroke-linejoin:round;" x1="352.961" y1="379.042" x2="322.777" y2="359.967"/>
					
						<line style="fill:none;stroke:#2647A3;stroke-linecap:round;stroke-linejoin:round;" x1="352.96" y1="345.581" x2="329.986" y2="331.047"/>
					
						<line style="fill:none;stroke:#2647A3;stroke-linecap:round;stroke-linejoin:round;" x1="352.961" y1="312.119" x2="337.194" y2="302.129"/>
					
						<line style="fill:none;stroke:#2647A3;stroke-linecap:round;stroke-linejoin:round;" x1="352.961" y1="278.658" x2="344.402" y2="273.211"/>
				</g>
			</g>
			<g>
				<polygon style="fill:#F7CDBA;stroke:#213D8C;stroke-linecap:round;stroke-linejoin:round;" points="401.014,388.197 
					401.014,406.731 404.609,404.269 405.853,405.54 401.014,411.897 401.014,416.56 388.851,416.56 388.851,388.197 				"/>
				<polygon style="fill:#81D678;stroke:#2647A3;stroke-linecap:round;stroke-linejoin:round;" points="394.932,402.473 
					394.932,301.167 369.681,402.473 				"/>
				<polygon style="fill:#64B05B;stroke:#2647A3;stroke-linecap:round;stroke-linejoin:round;" points="394.932,402.473 
					394.932,301.167 420.182,402.473 				"/>
				<g>
					
						<line style="fill:none;stroke:#2647A3;stroke-linecap:round;stroke-linejoin:round;" x1="394.932" y1="396.717" x2="415.507" y2="383.713"/>
					
						<line style="fill:none;stroke:#2647A3;stroke-linecap:round;stroke-linejoin:round;" x1="394.932" y1="374.986" x2="410.826" y2="364.932"/>
					
						<line style="fill:none;stroke:#2647A3;stroke-linecap:round;stroke-linejoin:round;" x1="394.932" y1="353.256" x2="406.145" y2="346.151"/>
					
						<line style="fill:none;stroke:#2647A3;stroke-linecap:round;stroke-linejoin:round;" x1="394.932" y1="331.525" x2="401.463" y2="327.369"/>
				</g>
				<g>
					
						<line style="fill:none;stroke:#2647A3;stroke-linecap:round;stroke-linejoin:round;" x1="394.932" y1="392.195" x2="375.329" y2="379.807"/>
					
						<line style="fill:none;stroke:#2647A3;stroke-linecap:round;stroke-linejoin:round;" x1="394.93" y1="370.465" x2="380.011" y2="361.026"/>
					
						<line style="fill:none;stroke:#2647A3;stroke-linecap:round;stroke-linejoin:round;" x1="394.932" y1="348.734" x2="384.691" y2="342.246"/>
					
						<line style="fill:none;stroke:#2647A3;stroke-linecap:round;stroke-linejoin:round;" x1="394.932" y1="327.004" x2="389.372" y2="323.467"/>
				</g>
			</g>
		</g>
		<g>
			<path style="fill:#4675CD;stroke:#2647A3;stroke-linecap:round;stroke-linejoin:round;" d="M341.009,189.477
				c0,1.757-1.424,3.181-3.181,3.181h-2.12c-1.757,0-3.181-1.424-3.181-3.181v-56.846c0-1.757,1.424-3.181,3.181-3.181h2.12
				c1.757,0,3.181,1.424,3.181,3.181V189.477z"/>
			<g>
				<path style="fill:#4675CD;stroke:#2647A3;stroke-linecap:round;stroke-linejoin:round;" d="M338.12,399.75
					c0,9.286-7.528,16.81-16.811,16.81H178.947c-9.285,0-16.814-7.524-16.814-16.81V102.571c0-9.286,7.528-16.811,16.814-16.811
					h142.361c9.283,0,16.811,7.525,16.811,16.811V399.75z"/>
				<path style="fill:#FFFFFF;stroke:#2647A3;stroke-linecap:round;stroke-linejoin:round;" d="M321.309,96.93h-55.791
					c-9.52,0-4.648,10.598-15.391,10.598c-10.744,0-5.872-10.598-15.393-10.598h-55.787c-3.112,0-5.645,2.531-5.645,5.642V399.75
					c0,3.112,2.532,5.642,5.645,5.642h142.361c3.11,0,5.641-2.529,5.641-5.642V102.571C326.949,99.461,324.419,96.93,321.309,96.93z
					"/>
				<path style="fill:#2358B8;stroke:#2647A3;stroke-linecap:round;stroke-linejoin:round;" d="M254.125,96.93
					c0,2.207-1.791,3.998-3.998,3.998c-2.209,0-3.996-1.791-3.996-3.998c0-2.208,1.787-3.998,3.996-3.998
					C252.334,92.932,254.125,94.722,254.125,96.93z"/>
				<g>
					
						<line style="fill:none;stroke:#2647A3;stroke-linecap:round;stroke-linejoin:round;" x1="193.53" y1="388.725" x2="203.141" y2="388.725"/>
					
						<line style="fill:none;stroke:#2647A3;stroke-linecap:round;stroke-linejoin:round;" x1="193.53" y1="392.412" x2="203.141" y2="392.412"/>
					
						<line style="fill:none;stroke:#2647A3;stroke-linecap:round;stroke-linejoin:round;" x1="193.53" y1="396.1" x2="203.141" y2="396.1"/>
				</g>
				
					<rect x="245.321" y="388.725" style="fill:none;stroke:#2647A3;stroke-linecap:round;stroke-linejoin:round;" width="9.609" height="7.375"/>
				<g>
					<path style="fill:none;stroke:#2647A3;stroke-linecap:round;stroke-linejoin:round;" d="M297.476,389.424h5.558
						c2.037,0,3.688,1.652,3.688,3.689l0,0c0,2.037-1.65,3.686-3.688,3.686h-5.92"/>
					<polyline style="fill:none;stroke:#2647A3;stroke-linecap:round;stroke-linejoin:round;" points="298.693,388.025 
						297.291,389.424 298.693,390.825 					"/>
				</g>
			</g>
			<g>
				<g>
					<path style="fill:#FFD373;stroke:#2647A3;stroke-linecap:round;stroke-linejoin:round;" d="M287.901,231.295
						c0,1.757-1.425,3.181-3.181,3.181h-69.188c-1.756,0-3.181-1.424-3.181-3.181v-38.637c0-1.757,1.425-3.181,3.181-3.181h69.188
						c1.756,0,3.181,1.424,3.181,3.181V231.295z"/>
					<path style="fill:none;stroke:#2647A3;stroke-linecap:round;stroke-linejoin:round;" d="M287.901,192.658
						c0,0-31.298,21.557-33.066,22.734c-1.767,1.177-3.501,2.061-4.71,2.061h0.002c-1.209,0-2.943-0.884-4.711-2.061
						c-1.767-1.178-33.065-22.734-33.065-22.734"/>
					<path style="fill:none;stroke:#2647A3;stroke-linecap:round;stroke-linejoin:round;" d="M259.826,211.975
						c9.282,6.376,28.075,19.32,28.075,19.32"/>
					<path style="fill:none;stroke:#2647A3;stroke-linecap:round;stroke-linejoin:round;" d="M212.352,231.295
						c0,0,18.79-12.942,28.073-19.318"/>
				</g>
				<path style="fill:#FF879F;stroke:#2647A3;stroke-linecap:round;stroke-linejoin:round;" d="M301.606,189.477
					c0,8.686-7.04,15.726-15.725,15.726c-8.685,0-15.725-7.04-15.725-15.726c0-8.685,7.04-15.725,15.725-15.725
					C294.566,173.752,301.606,180.792,301.606,189.477z"/>
				<g>
					<path style="fill:#FFFFFF;stroke:#2647A3;stroke-linecap:round;stroke-linejoin:round;" d="M284.563,195.664
						c-0.084-0.084-0.124-0.186-0.124-0.305l0.034-3.21c0-0.069-0.023-0.116-0.068-0.142c-0.05-0.022-0.097-0.012-0.146,0.037
						l-2.995,1.748c-0.096,0.045-0.164,0.069-0.214,0.069c-0.167,0-0.298-0.081-0.392-0.25l-0.999-1.855
						c-0.046-0.093-0.069-0.177-0.069-0.249c0-0.166,0.081-0.284,0.248-0.357l2.996-1.604c0.118-0.069,0.118-0.142,0-0.211
						l-2.996-1.535c-0.119-0.047-0.195-0.131-0.232-0.25c-0.037-0.119-0.017-0.237,0.053-0.357l0.999-1.853
						c0.071-0.117,0.162-0.195,0.266-0.23c0.108-0.038,0.221-0.02,0.34,0.052l2.995,1.713c0.049,0.023,0.096,0.023,0.146,0
						c0.045-0.024,0.068-0.072,0.068-0.143l-0.034-3.139c0-0.12,0.04-0.219,0.124-0.303c0.082-0.084,0.184-0.125,0.303-0.125h2.034
						c0.118,0,0.217,0.041,0.301,0.125c0.085,0.084,0.126,0.183,0.126,0.303l-0.035,3.139c0,0.07,0.023,0.118,0.07,0.143
						c0.048,0.023,0.094,0.023,0.145,0l2.994-1.713c0.092-0.045,0.166-0.071,0.211-0.071c0.169,0,0.299,0.083,0.395,0.25
						l0.997,1.853c0.048,0.097,0.07,0.181,0.07,0.25c0,0.145-0.084,0.249-0.249,0.322l-3.029,1.57c-0.119,0.069-0.119,0.142,0,0.211
						l3.029,1.604c0.118,0.05,0.196,0.131,0.231,0.25c0.035,0.119,0.018,0.238-0.053,0.356l-0.997,1.855
						c-0.073,0.119-0.163,0.197-0.268,0.232c-0.105,0.035-0.22,0.018-0.338-0.052l-2.994-1.748c-0.051-0.049-0.097-0.06-0.145-0.037
						c-0.048,0.025-0.07,0.072-0.07,0.142l0.035,3.21c0,0.119-0.041,0.221-0.126,0.305c-0.084,0.084-0.183,0.125-0.301,0.125h-2.034
						C284.746,195.789,284.645,195.748,284.563,195.664z"/>
				</g>
			</g>
			<text transform="matrix(1 0 0 1 216.415 260.4756)"><tspan x="0" y="0" style="fill:#4675CD; font-family:'Barlow-Bold'; font-size:12.7219px;">yay, you got</tspan><tspan x="-8.555" y="21.203" style="fill:#4675CD; font-family:'Barlow-Bold'; font-size:12.7219px;">1 new message</tspan></text>
			<g>
				<path style="fill:#4675CD;stroke:#2647A3;stroke-linecap:round;stroke-linejoin:round;" d="M240.426,332.87
					c0,5.027-4.076,9.103-9.104,9.103h-37.447c-5.027,0-9.102-4.075-9.102-9.103l0,0c0-5.029,4.074-9.105,9.102-9.105h37.447
					C236.35,323.765,240.426,327.841,240.426,332.87L240.426,332.87z"/>
				<text transform="matrix(1 0 0 1 194.7725 335.5791)" style="fill:#FFFFFF; font-family:'Barlow-Bold'; font-size:8.6755px;">read now</text>
			</g>
			<g>
				<path style="fill:#BADBF7;stroke:#2647A3;stroke-linecap:round;stroke-linejoin:round;" d="M314.902,332.87
					c0,5.027-4.076,9.103-9.103,9.103h-37.447c-5.027,0-9.103-4.075-9.103-9.103l0,0c0-5.029,4.075-9.105,9.103-9.105h37.447
					C310.826,323.765,314.902,327.841,314.902,332.87L314.902,332.87z"/>
				<text transform="matrix(1 0 0 1 268.4072 335.5791)" style="fill:#2647A3; font-family:'Barlow-Bold'; font-size:8.6755px;">read later</text>
			</g>
			<g>
				<path style="fill:#FFD373;stroke:#213D8C;stroke-linecap:round;stroke-linejoin:round;" d="M206.379,186.912l-7.415-4.06
					c-1.739-0.952-2.375-3.134-1.425-4.87c0.951-1.738,3.133-2.374,4.869-1.426c0.499,0.275,0.915,0.662,1.22,1.098l4.834,6.939
					c0.506,0.726,0.325,1.725-0.397,2.229C207.549,187.182,206.895,187.195,206.379,186.912z"/>
				<path style="fill:#FFD373;stroke:#213D8C;stroke-linecap:round;stroke-linejoin:round;" d="M207.501,194.148l-8.106,2.401
					c-1.901,0.563-3.896-0.524-4.459-2.422c-0.564-1.9,0.523-3.896,2.419-4.459c0.547-0.16,1.114-0.184,1.639-0.092l8.329,1.459
					c0.871,0.152,1.453,0.985,1.301,1.854C208.517,193.508,208.065,193.982,207.501,194.148z"/>
				<path style="fill:#FFD373;stroke:#213D8C;stroke-linecap:round;stroke-linejoin:round;" d="M212.893,184.59l-0.934-8.401
					c-0.217-1.972,1.203-3.744,3.17-3.964c1.97-0.219,3.743,1.202,3.963,3.169c0.061,0.565-0.016,1.129-0.198,1.628l-2.905,7.942
					c-0.305,0.83-1.226,1.257-2.054,0.953C213.344,185.703,212.957,185.175,212.893,184.59z"/>
			</g>
		</g>
		
			<line style="fill:none;stroke:#2647A3;stroke-linecap:round;stroke-linejoin:round;" x1="73.902" y1="416.56" x2="426.352" y2="416.56"/>
		<g>
			<path style="fill:#BADBF7;" d="M250.366,182.165h-2.316v-2.313c0-0.746-0.604-1.35-1.349-1.35c-0.744,0-1.35,0.604-1.35,1.35
				v2.313h-2.313c-0.744,0-1.349,0.605-1.349,1.349c0,0.745,0.604,1.351,1.349,1.351h2.313v2.313c0,0.745,0.605,1.35,1.35,1.35
				c0.745,0,1.349-0.604,1.349-1.35v-2.313h2.316c0.743,0,1.348-0.605,1.348-1.351C251.714,182.77,251.109,182.165,250.366,182.165z
				"/>
			<path style="fill:#FFD373;" d="M431.508,340.623h-2.315v-2.313c0-0.745-0.603-1.35-1.348-1.35c-0.745,0-1.351,0.604-1.351,1.35
				v2.313h-2.313c-0.744,0-1.35,0.605-1.35,1.349c0,0.745,0.605,1.351,1.35,1.351h2.313v2.314c0,0.744,0.605,1.349,1.351,1.349
				c0.745,0,1.348-0.605,1.348-1.349v-2.314h2.315c0.745,0,1.35-0.605,1.35-1.351C432.857,341.228,432.253,340.623,431.508,340.623z
				"/>
			<path style="fill:#FF879F;" d="M101.075,131.087l-1.639-1.637l1.637-1.637c0.525-0.525,0.526-1.38,0-1.907
				c-0.526-0.525-1.382-0.525-1.909,0l-1.635,1.636l-1.636-1.636c-0.526-0.525-1.382-0.525-1.908,0
				c-0.527,0.526-0.527,1.382,0,1.907l1.636,1.637l-1.638,1.637c-0.525,0.526-0.525,1.381,0,1.908c0.528,0.526,1.382,0.526,1.909,0
				l1.636-1.637l1.637,1.637c0.526,0.526,1.382,0.526,1.91,0C101.6,132.468,101.6,131.613,101.075,131.087z"/>
			<path style="fill:none;stroke:#FF879F;stroke-miterlimit:10;" d="M389.683,179.109c0,2.515-2.038,4.551-4.552,4.551
				c-2.516,0-4.552-2.036-4.552-4.551c0-2.514,2.036-4.552,4.552-4.552C387.645,174.558,389.683,176.596,389.683,179.109z"/>
			<path style="fill:none;stroke:#FF879F;stroke-miterlimit:10;" d="M265.964,60.357c0,2.515-2.038,4.552-4.552,4.552
				c-2.514,0-4.552-2.037-4.552-4.552c0-2.513,2.038-4.551,4.552-4.551C263.926,55.807,265.964,57.845,265.964,60.357z"/>
			<polygon style="fill:none;stroke:#2E7EFB;stroke-linejoin:round;stroke-miterlimit:10;" points="241.689,131.848 246.32,134.206 
				241.963,137.036 			"/>
			<polygon style="fill:none;stroke:#2E7EFB;stroke-linejoin:round;stroke-miterlimit:10;" points="62.924,356.951 67.553,359.31 
				63.196,362.141 			"/>
			<path style="fill:none;stroke:#FF879F;stroke-miterlimit:10;" d="M75.094,229.354c4.125,0,4.125,3.883,8.254,3.883
				c4.127,0,4.127-3.883,8.258-3.883c4.129,0,4.129,3.883,8.258,3.883s4.129-3.883,8.257-3.883c4.131,0,4.131,3.883,8.263,3.883
				c4.131,0,4.131-3.883,8.262-3.883"/>
			<path style="fill:none;stroke:#2E7EFB;stroke-linecap:round;stroke-linejoin:round;stroke-miterlimit:10;" d="M357.529,118.804
				c4.129,0,4.129,3.884,8.256,3.884c4.129,0,4.129-3.884,8.255-3.884c4.131,0,4.131,3.884,8.26,3.884
				c4.129,0,4.129-3.884,8.256-3.884c4.134,0,4.134,3.884,8.266,3.884c4.13,0,4.13-3.884,8.262-3.884"/>
			<path style="fill:none;stroke:#A7D678;stroke-linecap:round;stroke-linejoin:round;stroke-miterlimit:10;" d="M307.75,211.223
				c4.128,0,4.128,3.882,8.256,3.882c4.128,0,4.128-3.882,8.256-3.882c4.13,0,4.13,3.882,8.26,3.882
				c4.127,0,4.127-3.882,8.256-3.882c4.133,0,4.133,3.882,8.266,3.882c4.129,0,4.129-3.882,8.262-3.882"/>
		</g>
	</g>
</g>
<g id="DESIGNED_BY_FREEPIK">
	<g>
		<g id="XMLID_443_">
			<g id="XMLID_462_">
				<path id="XMLID_470_" style="fill:#292B2E;" d="M260.103,465.471c-0.432,0.443-0.803,0.932-1.107,1.453l-0.465-0.24
					c-0.068-0.297-0.35-0.502-0.66-0.467c-0.332,0.039-0.566,0.34-0.531,0.67c0.041,0.332,0.342,0.568,0.672,0.529
					c0.066-0.008,0.125-0.025,0.184-0.053l0.451,0.234c-0.25,0.555-0.432,1.139-0.541,1.744l0.748,0.131
					c0.23-1.305,0.85-2.506,1.793-3.473L260.103,465.471z"/>
				<path id="XMLID_469_" style="fill:#292B2E;" d="M265.589,463.17c-0.17,0-0.34,0.006-0.508,0.016l-0.074-0.625
					c0.188-0.15,0.297-0.389,0.266-0.645c-0.045-0.393-0.402-0.674-0.795-0.629c-0.393,0.047-0.674,0.402-0.627,0.797
					c0.029,0.254,0.188,0.461,0.404,0.563l0.072,0.625c-0.713,0.115-1.404,0.332-2.059,0.644l0.326,0.686
					c0.936-0.447,1.941-0.674,2.994-0.674c0.498,0,0.994,0.053,1.477,0.158l0.158-0.742
					C266.689,463.228,266.14,463.17,265.589,463.17z"/>
				<path id="XMLID_468_" style="fill:#292B2E;" d="M272.192,465.717c0.33-0.041,0.564-0.342,0.525-0.672
					c-0.039-0.332-0.34-0.566-0.672-0.525c-0.309,0.037-0.535,0.303-0.529,0.608l-0.416,0.363c-0.418-0.43-0.891-0.813-1.408-1.139
					l-0.406,0.641c1.137,0.715,2.023,1.727,2.566,2.926l0.688-0.313c-0.25-0.555-0.566-1.072-0.939-1.545l0.402-0.351
					C272.064,465.721,272.128,465.725,272.192,465.717z"/>
				<path id="XMLID_467_" style="fill:#292B2E;" d="M265.044,473.377c-0.387,0.023-0.775,0.035-1.158,0.035
					c-0.879,0-1.732-0.061-2.48-0.18c-0.389-0.06-0.844-0.154-1.27-0.291c1.049,1.861,3.07,3.125,5.391,3.125
					c2.855,0,5.26-1.916,5.947-4.504c-0.68,0.449-1.504,0.826-2.457,1.123C267.837,473.053,266.462,473.293,265.044,473.377z"/>
				<path id="XMLID_463_" style="fill:#292B2E;" d="M265.589,464.685c-3.352,0-6.078,2.666-6.078,5.943
					c0,0.426,0.045,0.85,0.137,1.262c0.674,0.482,2.705,0.891,5.348,0.73c2.881-0.174,5.295-0.957,6.672-2.158
					c-0.004-0.195-0.02-0.391-0.045-0.582C271.243,466.92,268.649,464.685,265.589,464.685z M263.431,471.201
					c-1.02,0-1.85-0.83-1.85-1.85c0-1.021,0.83-1.852,1.85-1.852c1.02,0,1.85,0.83,1.85,1.852
					C265.28,470.371,264.45,471.201,263.431,471.201z M268.169,470.293c-0.75,0-1.363-0.611-1.363-1.361s0.613-1.359,1.363-1.359
					s1.359,0.609,1.359,1.359S268.919,470.293,268.169,470.293z"/>
			</g>
			<path id="XMLID_460_" style="fill:#292B2E;" d="M281.595,466.553c-0.295-0.115-0.809-0.309-1.383-0.238
				c-0.551,0.07-0.844,0.342-0.844,1.008v0.865h2.228v1.717h-2.228v5.455h-1.932v-5.455h-1.34v-1.717h1.34v-0.889
				c0-1.68,0.895-2.781,2.568-2.781c0.643,0,1.156,0.121,1.59,0.307V466.553z"/>
			<path id="XMLID_458_" style="fill:#292B2E;" d="M286.296,469.885c-0.178-0.029-0.359-0.047-0.527-0.047
				c-0.893,0-1.508,0.549-1.508,1.613v3.908h-1.932v-7.172h1.873v0.785c0.451-0.674,1.137-0.977,2.018-0.977
				c0.416,0,0.85,0.127,1.098,0.336L286.296,469.885z"/>
			<path id="XMLID_455_" style="fill:#292B2E;" d="M293.964,471.764c0,0.221-0.016,0.488-0.037,0.65h-5.084
				c0.207,1.037,0.93,1.488,1.842,1.488c0.621,0,1.295-0.252,1.814-0.689l1.133,1.244c-0.814,0.748-1.852,1.088-3.059,1.088
				c-2.197,0-3.723-1.496-3.723-3.752c0-2.258,1.48-3.797,3.627-3.797C292.54,467.996,293.954,469.527,293.964,471.764z
				 M288.851,471.098h3.172c-0.176-0.918-0.732-1.438-1.559-1.438C289.552,469.66,289.021,470.209,288.851,471.098z"/>
			<path id="XMLID_452_" style="fill:#292B2E;" d="M301.618,471.764c0,0.221-0.016,0.488-0.037,0.65h-5.086
				c0.207,1.037,0.934,1.488,1.844,1.488c0.621,0,1.295-0.252,1.813-0.689l1.133,1.244c-0.814,0.748-1.85,1.088-3.057,1.088
				c-2.199,0-3.723-1.496-3.723-3.752c0-2.258,1.48-3.797,3.627-3.797C300.196,467.996,301.61,469.527,301.618,471.764z
				 M296.503,471.098h3.176c-0.178-0.918-0.734-1.438-1.563-1.438C297.206,469.66,296.673,470.209,296.503,471.098z"/>
			<path id="XMLID_449_" style="fill:#292B2E;" d="M309.964,471.77c0,2.154-1.496,3.775-3.475,3.775
				c-0.959,0-1.641-0.377-2.107-0.932v3.707h-1.926v-10.133h1.889v0.793c0.467-0.586,1.154-0.984,2.139-0.984
				C308.468,467.996,309.964,469.617,309.964,471.77z M304.286,471.77c0,1.133,0.748,1.977,1.844,1.977
				c1.139,0,1.85-0.881,1.85-1.977c0-1.094-0.711-1.975-1.85-1.975C305.034,469.795,304.286,470.639,304.286,471.77z"/>
			<path id="XMLID_446_" style="fill:#292B2E;" d="M313.067,465.842c0,0.695-0.541,1.229-1.236,1.229
				c-0.697,0-1.229-0.533-1.229-1.229c0-0.695,0.531-1.244,1.229-1.244C312.526,464.598,313.067,465.147,313.067,465.842z
				 M312.806,475.359h-1.93v-7.172h1.93V475.359z"/>
			<path id="XMLID_444_" style="fill:#292B2E;" d="M316.03,470.742l2.703-2.555h2.369l-3.48,3.375l3.504,3.797h-2.379l-2.717-2.9
				v2.9h-1.932v-10.658h1.932V470.742z"/>
		</g>
		<g>
			<path style="fill:#292B2E;" d="M184.413,475.295v-1.055c-0.527,0.719-1.395,1.23-2.389,1.23c-1.844,0-3.146-1.406-3.146-3.705
				c0-2.256,1.289-3.721,3.146-3.721c0.953,0,1.816,0.469,2.389,1.244v-3.764h1.098v9.77H184.413z M184.413,473.377v-3.209
				c-0.396-0.615-1.246-1.143-2.125-1.143c-1.42,0-2.27,1.172-2.27,2.74c0,1.566,0.85,2.725,2.27,2.725
				C183.167,474.49,184.017,473.992,184.413,473.377z"/>
			<path style="fill:#292B2E;" d="M186.933,471.75c0-2.051,1.465-3.705,3.486-3.705c2.139,0,3.398,1.67,3.398,3.793v0.279h-5.73
				c0.09,1.332,1.027,2.445,2.551,2.445c0.807,0,1.627-0.322,2.182-0.893l0.529,0.717c-0.703,0.703-1.656,1.084-2.813,1.084
				C188.44,475.471,186.933,473.963,186.933,471.75z M190.403,468.953c-1.508,0-2.256,1.273-2.316,2.357h4.646
				C192.718,470.256,192.015,468.953,190.403,468.953z"/>
			<path style="fill:#292B2E;" d="M194.608,474.357l0.57-0.791c0.469,0.543,1.363,1.012,2.326,1.012
				c1.088,0,1.674-0.514,1.674-1.217c0-1.713-4.381-0.658-4.381-3.281c0-1.098,0.951-2.035,2.637-2.035
				c1.199,0,2.049,0.453,2.623,1.025l-0.514,0.762c-0.424-0.514-1.201-0.895-2.109-0.895c-0.967,0-1.566,0.484-1.566,1.113
				c0,1.553,4.379,0.527,4.379,3.281c0,1.188-0.951,2.139-2.783,2.139C196.308,475.471,195.325,475.119,194.608,474.357z"/>
			<path style="fill:#292B2E;" d="M201.477,466.477c0-0.41,0.338-0.746,0.733-0.746c0.41,0,0.744,0.336,0.744,0.746
				c0,0.41-0.334,0.732-0.744,0.732C201.815,467.209,201.477,466.887,201.477,466.477z M201.667,475.295v-7.074h1.1v7.074H201.667z"
				/>
			<path style="fill:#292B2E;" d="M204.583,477.111l0.555-0.82c0.588,0.703,1.291,0.967,2.301,0.967c1.172,0,2.272-0.57,2.272-2.123
				v-1.012c-0.514,0.719-1.377,1.26-2.373,1.26c-1.846,0-3.15-1.377-3.15-3.662c0-2.27,1.289-3.676,3.15-3.676
				c0.951,0,1.801,0.469,2.373,1.244v-1.068h1.098v6.869c0,2.344-1.641,3.076-3.369,3.076
				C206.235,478.166,205.417,477.932,204.583,477.111z M209.71,473.26v-3.092c-0.381-0.615-1.231-1.143-2.109-1.143
				c-1.422,0-2.271,1.129-2.271,2.695c0,1.553,0.85,2.695,2.271,2.695C208.479,474.416,209.329,473.875,209.71,473.26z"/>
			<path style="fill:#292B2E;" d="M217.413,475.295v-4.629c0-1.244-0.629-1.641-1.582-1.641c-0.863,0-1.684,0.527-2.096,1.1v5.17
				h-1.098v-7.074h1.098v1.025c0.5-0.586,1.465-1.201,2.52-1.201c1.48,0,2.258,0.746,2.258,2.285v4.965H217.413z"/>
			<path style="fill:#292B2E;" d="M219.933,471.75c0-2.051,1.465-3.705,3.486-3.705c2.139,0,3.398,1.67,3.398,3.793v0.279h-5.727
				c0.088,1.332,1.025,2.445,2.547,2.445c0.807,0,1.627-0.322,2.182-0.893l0.529,0.717c-0.703,0.703-1.654,1.084-2.813,1.084
				C221.442,475.471,219.933,473.963,219.933,471.75z M223.403,468.953c-1.508,0-2.254,1.273-2.313,2.357h4.643
				C225.718,470.256,225.017,468.953,223.403,468.953z"/>
			<path style="fill:#292B2E;" d="M233.351,475.295v-1.055c-0.529,0.719-1.391,1.23-2.387,1.23c-1.848,0-3.15-1.406-3.15-3.705
				c0-2.256,1.289-3.721,3.15-3.721c0.951,0,1.816,0.469,2.387,1.244v-3.764h1.1v9.77H233.351z M233.351,473.377v-3.209
				c-0.396-0.615-1.246-1.143-2.123-1.143c-1.424,0-2.273,1.172-2.273,2.74c0,1.566,0.85,2.725,2.273,2.725
				C232.104,474.49,232.954,473.992,233.351,473.377z"/>
			<path style="fill:#292B2E;" d="M239.692,475.295v-9.77h1.1v3.764c0.57-0.775,1.418-1.244,2.385-1.244
				c1.844,0,3.15,1.465,3.15,3.721c0,2.299-1.307,3.705-3.15,3.705c-0.996,0-1.857-0.512-2.385-1.23v1.055H239.692z M242.899,474.49
				c1.436,0,2.283-1.158,2.283-2.725c0-1.568-0.848-2.74-2.283-2.74c-0.865,0-1.729,0.527-2.107,1.143v3.209
				C241.171,473.992,242.034,474.49,242.899,474.49z"/>
			<path style="fill:#292B2E;" d="M247.528,477.068c0.158,0.072,0.424,0.117,0.6,0.117c0.482,0,0.805-0.162,1.053-0.748l0.469-1.068
				l-2.957-7.148h1.188l2.355,5.801l2.346-5.801h1.201l-3.547,8.51c-0.424,1.025-1.143,1.422-2.078,1.435
				c-0.236,0-0.6-0.043-0.807-0.103L247.528,477.068z"/>
		</g>
	</g>
</g>
</svg>
