<svg width="65" height="71" viewBox="0 0 65 71" fill="none" xmlns="http://www.w3.org/2000/svg">
<path d="M57.6581 70.625H2.87076C2.242 70.625 1.639 70.3792 1.19441 69.9415C0.749809 69.5039 0.500038 68.9104 0.500038 68.2915V60.0518C0.491697 55.0298 1.86135 50.0988 4.46436 45.7795C7.06736 41.4603 10.8071 37.9131 15.2886 35.5126C14.8955 34.7739 14.5969 33.9901 14.3996 33.1791C11.2096 32.8119 8.26953 31.2988 6.14293 28.9297C4.01634 26.5607 2.85283 23.5025 2.87545 20.3412C2.89807 17.18 4.10521 14.1382 6.2655 11.7989C8.42578 9.4596 11.3872 7.98738 14.5821 7.66444C16.2496 5.47857 18.4109 3.70458 20.8951 2.48281C23.3793 1.26104 26.1183 0.625 28.8953 0.625C31.6724 0.625 34.4114 1.26104 36.8956 2.48281C39.3798 3.70458 41.5411 5.47857 43.2086 7.66444C45.8836 7.92517 48.4114 8.99334 50.4459 10.7227C52.4804 12.4521 53.9222 14.7582 54.5738 17.3252C54.9602 18.8513 55.1333 20.3354 54.991 21.8242C55.6882 22.0731 56.2906 22.5275 56.716 23.1254C57.1415 23.7233 57.3695 24.4358 57.3689 25.1658C57.3689 24.2729 57.7103 23.4128 58.3253 22.7564C58.9403 22.1001 59.7837 21.6956 60.6879 21.6235H60.9439C61.8844 21.632 62.7838 22.0036 63.4489 22.6581C64.1139 23.3127 64.4913 24.1981 64.5 25.1238V41.6357C64.4981 43.1267 63.8956 44.556 62.8245 45.6103C61.7534 46.6646 60.3013 47.2577 58.7866 47.2595H57.9805V49.0797C57.9805 49.3597 57.9378 49.635 57.8572 49.9011C59.0174 50.0274 60.0895 50.5706 60.8681 51.4266C61.6467 52.2826 62.0772 53.3911 62.0771 54.5401V66.0606C62.1032 67.2419 61.653 68.3853 60.8248 69.2407C59.9967 70.0961 58.8581 70.5938 57.6581 70.625ZM52.6559 27.455L52.6417 27.476V35.5546C52.6492 36.1626 52.42 36.7503 52.0012 37.1973C51.5824 37.6442 51.0057 37.9164 50.3895 37.9581H50.2662C49.6374 37.9581 49.0344 37.7123 48.5898 37.2747C48.1452 36.837 47.8955 36.2435 47.8955 35.6246V29.1374L47.8433 29.1724V25.1448C47.8433 24.7014 47.6062 24.3047 47.2459 24.0924C47.1018 24.0172 46.9438 23.9711 46.7812 23.957H46.6983C46.3839 23.957 46.0824 24.08 45.8601 24.2988C45.6378 24.5176 45.5129 24.8144 45.5129 25.1238V41.6357C45.512 42.0681 45.5978 42.4964 45.7654 42.896C45.9331 43.2956 46.1793 43.6587 46.4899 43.9644C46.8005 44.2701 47.1693 44.5124 47.5753 44.6774C47.9813 44.8425 48.4164 44.9269 48.8556 44.926H52.0324V49.0797C52.0336 49.2154 52.089 49.3453 52.1865 49.4413C52.2841 49.5373 52.416 49.5918 52.5539 49.593H55.0764C55.2143 49.5918 55.3463 49.5373 55.4438 49.4413C55.5414 49.3453 55.5967 49.2154 55.5979 49.0797V44.933H58.7747C59.2139 44.9339 59.649 44.8495 60.055 44.6844C60.461 44.5194 60.8299 44.2771 61.1405 43.9714C61.451 43.6657 61.6972 43.3026 61.8649 42.903C62.0325 42.5034 62.1184 42.0751 62.1174 41.6427V25.1215C62.1114 24.8139 61.9845 24.5206 61.7635 24.3031C61.5425 24.0855 61.2445 23.9607 60.9321 23.9547L60.9676 23.957H60.8847C60.5774 23.983 60.2916 24.1226 60.0848 24.3478C59.878 24.573 59.7657 24.867 59.7704 25.1705V35.5546C59.7779 36.1626 59.5488 36.7503 59.13 37.1973C58.7112 37.6442 58.1345 37.9164 57.5182 37.9581H57.395C56.7662 37.9581 56.1632 37.7123 55.7186 37.2747C55.274 36.837 55.0242 36.2435 55.0242 35.6246V25.1705C55.029 24.867 54.9166 24.573 54.7098 24.3478C54.5031 24.1226 54.2172 23.983 53.91 23.957H53.827C53.5612 23.957 53.3032 24.0448 53.0942 24.2065C52.8853 24.3681 52.7376 24.5942 52.6748 24.8484C52.6622 24.9389 52.6559 25.0301 52.6559 25.1215V27.455ZM49.6214 49.0797V48.7156C49.3415 48.2243 49.0434 47.7433 48.7276 47.2735C47.6067 47.2547 46.5161 46.9123 45.5911 46.2888V65.958H46.8713C46.933 65.6406 47.0444 65.3396 47.2032 65.0666C46.9415 64.6261 46.8029 64.1252 46.8017 63.6149C46.8004 63.1046 46.9365 62.6031 47.1961 62.1613C46.9349 61.7173 46.7985 61.2129 46.801 60.6998C46.8035 60.1868 46.9448 59.6836 47.2103 59.2421C46.9391 58.7764 46.8053 58.2455 46.8239 57.709C46.8666 56.1969 48.0994 55.0558 49.5313 54.9134C49.6303 54.8874 49.7323 54.8741 49.8347 54.8738H50.2377V50.8345C49.8391 50.3336 49.6222 49.7159 49.6214 49.0797ZM32.1231 39.0525H25.7126C26.329 39.9906 27.4907 40.6627 28.925 40.6627C30.3403 40.6627 31.4996 39.9906 32.1231 39.0525ZM54.9792 51.9265H52.6085V54.8738H54.9792V51.9265ZM57.3499 57.2073H50.0718C49.9938 57.2228 49.9143 57.2306 49.8347 57.2306C49.4507 57.2306 49.2017 57.5247 49.1946 57.7743V57.7883C49.1944 57.8901 49.2195 57.9903 49.2679 58.0803C49.3163 58.1702 49.3864 58.247 49.472 58.304C49.6314 58.4136 49.761 58.5601 49.8494 58.7306C49.9377 58.9011 49.9821 59.0904 49.9786 59.2818C49.9751 59.4732 49.9238 59.6607 49.8292 59.828C49.7347 59.9952 49.5998 60.137 49.4364 60.2409C49.3569 60.2914 49.2911 60.3604 49.2448 60.4418C49.1985 60.5231 49.1732 60.6144 49.1709 60.7076C49.1709 60.9176 49.2729 61.0739 49.4151 61.1626C49.5848 61.266 49.7252 61.4098 49.8234 61.5808C49.9216 61.7519 49.9743 61.9445 49.9766 62.1409C49.979 62.3373 49.9309 62.5312 49.8369 62.7044C49.7429 62.8777 49.606 63.0248 49.4388 63.1321C49.3585 63.1826 49.292 63.2518 49.2453 63.3336C49.1986 63.4154 49.173 63.5073 49.1709 63.6011C49.1709 63.8111 49.2729 63.9675 49.4151 64.0562C49.5764 64.1544 49.7113 64.2893 49.8087 64.4495C49.906 64.6097 49.9629 64.7905 49.9745 64.9769C49.9861 65.1632 49.9521 65.3495 49.8754 65.5202C49.7987 65.691 49.6815 65.8411 49.5336 65.958H57.3499V57.2073ZM38.4079 65.958V59.6575C38.3975 59.3472 38.2661 59.0529 38.0409 58.8356C37.8157 58.6183 37.5141 58.4948 37.1988 58.4907H20.746C20.0822 58.4907 19.5606 59.0041 19.5606 59.6575V65.958H38.4079ZM12.3536 65.958V43.3952C10.0989 45.5632 8.3083 48.1539 7.08758 51.0144C5.86686 53.8748 5.24075 56.947 5.24622 60.0495L5.24148 65.958H12.3536ZM17.2373 39.7853V50.9535C17.2373 51.4902 17.6641 51.9102 18.2093 51.9102H39.7118C40.257 51.9102 40.6837 51.4902 40.6837 50.9535V39.8273C39.9488 39.4142 39.1878 39.0385 38.4079 38.7025V47.4625C38.4079 48.5289 37.1988 49.131 36.3216 48.5289L31.6347 45.3087L30.345 46.4405C29.9496 46.7838 29.4404 46.9733 28.9131 46.9733C28.3858 46.9733 27.8766 46.7838 27.4812 46.4405L27.4717 46.4335L26.2034 45.318L21.5283 48.5289C20.6512 49.131 19.4421 48.5056 19.4421 47.4859V38.7025C18.6885 39.0246 17.9526 39.3876 17.2373 39.7853ZM28.925 42.9939C28.2019 42.9939 27.5025 42.8772 26.8459 42.6602C27.0521 42.9005 27.2726 43.1269 27.512 43.3392L28.9131 44.569L30.3142 43.3392C30.5513 43.1292 30.7694 42.9052 30.9733 42.6672C30.3261 42.8772 29.6362 42.9939 28.925 42.9939ZM17.9912 18.4009V18.4243L18.0694 19.5724L16.9647 19.7124C15.6229 19.8804 14.5347 21.0565 14.5347 22.5359C14.5347 24.1391 15.8078 25.3805 17.3084 25.3805H17.3322L18.4511 25.3711L18.7973 30.6566C19.1529 34.2408 21.9432 36.719 25.2741 36.719H32.9078C36.2386 36.719 39.029 34.2408 39.3846 30.6566L39.7402 25.4552L40.7525 25.3711C42.1441 25.2521 43.2915 24.0527 43.2915 22.5359C43.2915 21.1452 42.3267 20.0181 41.0962 19.752L40.0768 19.5304L40.1883 18.3076C40.2452 16.2891 38.6497 14.6206 36.7958 14.6206H21.3861C19.4113 14.6206 17.811 16.3334 17.9912 18.4009Z" fill="#FDFDFD"/>
</svg>
