<svg width="33" height="31" viewBox="0 0 33 31" fill="none" xmlns="http://www.w3.org/2000/svg">
<path d="M17.3919 0.268502C17.4847 0.198093 17.5671 0.115068 17.6369 0.0218349H21.9069C22.2289 0.00444045 22.5516 0.00444045 22.8736 0.0218349H22.9369C23.8856 0.0191591 24.823 0.228719 25.6802 0.635168C27.2462 1.24946 28.6008 2.30418 29.5802 3.67183C30.3216 4.70745 30.8259 5.89352 31.0575 7.1459C31.2891 8.39827 31.2422 9.68626 30.9202 10.9185L25.4519 5.5235C25.2179 5.29268 24.9023 5.16334 24.5736 5.1635H16.6152C16.3599 5.17389 16.1138 5.2623 15.9102 5.41683L12.7702 7.79683C12.6015 7.92532 12.4091 8.0193 12.204 8.07342C11.999 8.12755 11.7852 8.14075 11.5751 8.11227C11.3649 8.08379 11.1624 8.0142 10.9791 7.90746C10.7958 7.80072 10.6354 7.65892 10.5069 7.49017C10.3792 7.32407 10.2856 7.13431 10.2317 6.93187C10.1777 6.72942 10.1643 6.51828 10.1924 6.31064C10.2204 6.103 10.2893 5.90297 10.3951 5.7221C10.5008 5.54123 10.6414 5.3831 10.8086 5.25683L17.3919 0.268502ZM9.16524 18.7252L9.14191 18.7468L7.51857 20.3602L7.4969 20.3802C7.21262 20.6505 6.83429 20.7996 6.44202 20.7958C6.04975 20.7921 5.67433 20.6358 5.39524 20.3602C5.25581 20.222 5.14513 20.0575 5.0696 19.8763C4.99407 19.695 4.95518 19.5007 4.95518 19.3043C4.95518 19.108 4.99407 18.9136 5.0696 18.7324C5.14513 18.5512 5.25581 18.3867 5.39524 18.2485L7.01857 16.6352C7.30132 16.3552 7.68315 16.1981 8.08107 16.1981C8.47899 16.1981 8.86083 16.3552 9.14357 16.6352C9.42149 16.9106 9.57962 17.2845 9.58368 17.6757C9.58773 18.067 9.43738 18.444 9.16524 18.7252ZM8.68024 21.5552C8.40809 21.8363 8.25774 22.2134 8.2618 22.6046C8.26586 22.9959 8.42399 23.3697 8.7019 23.6452C9.28857 24.2285 10.2402 24.2285 10.8269 23.6452L12.4502 22.0318C12.6076 21.8758 12.7281 21.6865 12.8029 21.4779C12.8777 21.2693 12.9049 21.0466 12.8825 20.8261C12.8601 20.6057 12.7888 20.393 12.6736 20.2036C12.5584 20.0143 12.4024 19.8531 12.2169 19.7318C11.9321 19.5445 11.5924 19.459 11.2529 19.4892C10.9133 19.5195 10.594 19.6637 10.3469 19.8985L10.3252 19.9218L8.7019 21.5335L8.68024 21.5552ZM5.1669 14.0118C5.30634 14.15 5.41701 14.3145 5.49254 14.4957C5.56807 14.677 5.60696 14.8713 5.60696 15.0677C5.60696 15.264 5.56807 15.4584 5.49254 15.6396C5.41701 15.8208 5.30634 15.9853 5.1669 16.1235L3.54357 17.7368C3.26083 18.0168 2.87899 18.1739 2.48107 18.1739C2.08315 18.1739 1.70132 18.0168 1.41857 17.7368C1.27914 17.5986 1.16846 17.4342 1.09293 17.2529C1.0174 17.0717 0.978516 16.8773 0.978516 16.681C0.978516 16.4847 1.0174 16.2903 1.09293 16.1091C1.16846 15.9278 1.27914 15.7634 1.41857 15.6252L3.0419 14.0118C3.32465 13.7318 3.70649 13.5748 4.10441 13.5748C4.50233 13.5748 4.88416 13.7318 5.1669 14.0118ZM15.7552 23.2068C15.8947 23.345 16.0053 23.5095 16.0809 23.6907C16.1564 23.872 16.1953 24.0663 16.1953 24.2627C16.1953 24.459 16.1564 24.6534 16.0809 24.8346C16.0053 25.0158 15.8947 25.1803 15.7552 25.3185L14.1319 26.9318C13.8492 27.2118 13.4673 27.3689 13.0694 27.3689C12.6715 27.3689 12.2896 27.2118 12.0069 26.9318C11.7855 26.7124 11.6387 26.4289 11.5873 26.1214C11.5358 25.8139 11.5824 25.4981 11.7202 25.2185L11.7219 25.2152C11.7946 25.0688 11.8909 24.9353 12.0069 24.8202L13.6302 23.2068C13.913 22.9268 14.2948 22.7698 14.6927 22.7698C15.0907 22.7698 15.4725 22.9268 15.7552 23.2068ZM4.9069 3.05017C6.01354 1.95073 7.35548 1.11706 8.83141 0.612091C10.3074 0.107119 11.8787 -0.0559587 13.4269 0.135168L9.30024 3.2635C8.8704 3.5887 8.50914 3.99571 8.23725 4.4611C7.96537 4.9265 7.78823 5.44108 7.71604 5.97521C7.64385 6.50935 7.67804 7.05249 7.81663 7.57336C7.95522 8.09423 8.19548 8.58254 8.52357 9.01017C9.186 9.87361 10.163 10.44 11.2415 10.5858C12.3199 10.7317 13.4123 10.445 14.2802 9.7885L17.0869 7.6635H24.0619L29.9069 13.4302C29.9257 13.4535 29.9457 13.4757 29.9669 13.4968L31.8836 15.4135C32.3147 15.8507 32.5618 16.4365 32.5739 17.0504C32.586 17.6643 32.3621 18.2594 31.9485 18.7132C31.5349 19.167 30.963 19.4449 30.3506 19.4896C29.7382 19.5343 29.132 19.3424 28.6569 18.9535L28.4969 18.7935C28.4659 18.762 28.4325 18.733 28.3969 18.7068L26.5752 16.8868C26.4984 16.8072 26.4064 16.7438 26.3047 16.7001C26.2031 16.6564 26.0937 16.6334 25.9831 16.6325C25.8724 16.6315 25.7627 16.6526 25.6603 16.6945C25.5579 16.7364 25.4648 16.7983 25.3866 16.8765C25.3083 16.9547 25.2465 17.0478 25.2046 17.1502C25.1627 17.2526 25.1416 17.3624 25.1425 17.473C25.1435 17.5837 25.1665 17.693 25.2102 17.7947C25.2538 17.8963 25.3173 17.9883 25.3969 18.0652L27.3136 19.9818C27.3836 20.0502 27.4536 20.1168 27.5269 20.1802L27.6002 20.2535C27.7607 20.4106 27.8885 20.5979 27.9761 20.8047C28.0637 21.0115 28.1094 21.2336 28.1106 21.4581C28.1119 21.6827 28.0685 21.9053 27.9831 22.113C27.8978 22.3207 27.772 22.5094 27.6132 22.6682C27.4545 22.827 27.2657 22.9527 27.058 23.0381C26.8503 23.1235 26.6278 23.1668 26.4032 23.1656C26.1786 23.1644 25.9565 23.1186 25.7498 23.031C25.543 22.9434 25.3556 22.8157 25.1986 22.6552L24.9152 22.3735C24.7977 22.2563 24.6478 22.1768 24.4849 22.1453C24.3219 22.1139 24.1532 22.1318 24.0005 22.1968C23.8477 22.2618 23.7179 22.3709 23.6276 22.5102C23.5372 22.6495 23.4906 22.8125 23.4936 22.9785C23.4909 23.0912 23.5113 23.2033 23.5534 23.3079C23.5956 23.4125 23.6586 23.5074 23.7386 23.5868L24.1102 23.9585C24.2634 24.1027 24.3861 24.2762 24.4709 24.4687C24.5558 24.6612 24.6012 24.8688 24.6043 25.0791C24.6075 25.2895 24.5684 25.4983 24.4893 25.6933C24.4103 25.8882 24.2929 26.0653 24.1442 26.2141C23.9954 26.3629 23.8183 26.4802 23.6233 26.5593C23.4284 26.6383 23.2195 26.6774 23.0092 26.6742C22.7988 26.6711 22.5913 26.6257 22.3988 26.5409C22.2063 26.456 22.0328 26.3333 21.8886 26.1802H21.8869L21.8669 26.1585L21.5169 25.8085C21.4399 25.7305 21.3481 25.6687 21.247 25.6264C21.1458 25.5842 21.0373 25.5624 20.9277 25.5624C20.8181 25.5624 20.7096 25.5842 20.6085 25.6264C20.5074 25.6687 20.4156 25.7305 20.3386 25.8085C20.1823 25.9648 20.0946 26.1767 20.0946 26.3977C20.0946 26.6186 20.1823 26.8306 20.3386 26.9868L20.7019 27.3518C20.8515 27.4996 20.9705 27.6753 21.0522 27.8691C21.1339 28.0628 21.1766 28.2707 21.1779 28.481C21.1792 28.6912 21.1391 28.8997 21.0599 29.0944C20.9806 29.2892 20.8638 29.4664 20.7161 29.616C20.5683 29.7656 20.3926 29.8846 20.1988 29.9663C20.0051 30.048 19.7972 30.0907 19.5869 30.092C19.3767 30.0933 19.1682 30.0532 18.9735 29.974C18.7787 29.8947 18.6015 29.7779 18.4519 29.6302L16.0669 27.3635L16.9419 26.4935C17.2366 26.2015 17.4706 25.8541 17.6303 25.4712C17.7899 25.0883 17.8722 24.6775 17.8722 24.2627C17.8722 23.8478 17.7899 23.4371 17.6303 23.0542C17.4706 22.6713 17.2366 22.3238 16.9419 22.0318C16.6301 21.7222 16.2574 21.4805 15.8475 21.3222C15.4376 21.1638 14.9993 21.0922 14.5602 21.1118C14.5796 20.6745 14.5071 20.238 14.3475 19.8304C14.1879 19.4228 13.9447 19.0531 13.6336 18.7452C13.322 18.4356 12.9497 18.1941 12.54 18.0357C12.1304 17.8774 11.6923 17.8057 11.2536 17.8252C11.2728 17.3881 11.2002 16.9519 11.0406 16.5446C10.881 16.1372 10.6379 15.7678 10.3269 15.4602C9.93073 15.0673 9.43839 14.7852 8.89908 14.6422C8.35977 14.4992 7.79237 14.5002 7.25357 14.6452C7.16096 13.9594 6.84391 13.3235 6.3519 12.8368C5.8036 12.2934 5.07682 11.9672 4.30633 11.9187C3.53584 11.8703 2.77394 12.103 2.16191 12.5735C1.76828 10.8838 1.81389 9.12148 2.29441 7.45442C2.77492 5.78736 3.67432 4.27112 4.9069 3.05017Z" fill="#497B12"/>
</svg>
