<svg width="40" height="38" viewBox="0 0 40 38" fill="none" xmlns="http://www.w3.org/2000/svg">
<path d="M16.867 0C16.6038 2.87556 17.9728 5.12145 19.333 7.1161C20.6933 9.10835 22.0184 10.8766 22.1588 12.9008C22.2642 14.285 21.7552 15.6612 21.1496 17.1414C20.5441 18.6296 19.8508 20.2138 19.7894 22.014L21.369 22.062C21.4129 20.5818 22.0184 19.1496 22.6327 17.6454C23.2383 16.1412 23.8613 14.565 23.7385 12.8048C23.563 10.2845 22.0009 8.30025 20.667 6.352C19.3418 4.40456 18.2185 2.52672 18.4467 0.121615L16.867 0ZM28.6441 0.761696C27.0031 1.6066 25.2128 2.63953 24.072 3.77328C23.3787 4.46376 22.9487 5.16385 22.8521 5.84234C22.7644 6.44481 22.9223 7.07609 23.4928 7.82019C25.2655 7.76418 26.5906 6.71605 27.5033 5.16065C28.2843 3.83728 28.6705 2.18828 28.6441 0.761696ZM10.3115 6.3192C10.215 6.32 10.1185 6.3224 10.0307 6.3248C9.5305 6.3392 9.06538 6.38321 8.63537 6.44401C9.55682 7.78818 11.312 9.30838 13.2163 10.1885C14.366 10.7166 15.5507 11.0206 16.6213 10.9966C17.5691 10.9806 18.4116 10.7166 19.1663 10.1245C19.0259 9.43639 18.6222 8.85232 17.9465 8.32425C17.1742 7.72418 16.0685 7.22811 14.8311 6.88407C13.4796 6.50802 11.9702 6.3304 10.6011 6.3192C10.5046 6.3184 10.4081 6.3184 10.3115 6.3192ZM28.3721 15.1651C28.1878 15.1731 28.0123 15.1891 27.8368 15.2051C26.5906 15.3491 25.5463 15.8452 24.7828 16.9813C25.1163 17.2934 25.4936 17.4614 25.9324 17.5414C26.5116 17.6454 27.2225 17.5734 27.9684 17.3414C29.0829 17.0053 30.2764 16.3173 31.1979 15.5812C30.3203 15.3171 29.3989 15.1651 28.5388 15.1651H28.3721ZM0.684511 23.3902V24.8303H18.6134C18.5169 25.4144 18.3677 26.2465 18.1308 27.1346C17.692 28.8148 16.867 30.6631 16.007 31.2712C14.91 32.0392 13.3918 32.0873 11.6542 31.9032C11.3208 31.7112 10.373 31.1351 9.45151 30.391C8.88986 29.943 8.36332 29.4309 8.04739 28.9829C7.73146 28.5268 7.67003 28.1988 7.74024 27.9907C7.73146 28.0387 7.73146 27.9907 7.9333 27.9187C8.14392 27.8467 8.4774 27.7827 8.81966 27.7587C9.50417 27.7027 10.1799 27.7587 10.1799 27.7587L10.3203 26.3185C10.3203 26.3185 10.1272 26.3025 9.82887 26.2945C9.52172 26.2865 9.11803 26.2865 8.68802 26.3185C8.25801 26.3585 7.80167 26.4225 7.36288 26.5746C6.93286 26.7266 6.43703 27.0066 6.24484 27.5427C5.95963 28.3268 6.26591 29.1029 6.71347 29.751C7.14348 30.383 7.75779 30.9511 8.38087 31.4472C7.18736 31.2952 5.9649 31.1991 4.81088 31.3672C4.50461 30.8151 4.11409 30.231 3.47784 29.759C2.69504 29.1749 1.57964 28.8148 0.0333479 28.7828L0 30.223C1.30233 30.247 1.99912 30.5191 2.47916 30.8791C2.80474 31.1191 3.04871 31.4312 3.27249 31.7912C2.96709 31.9272 2.66959 32.0873 2.3835 32.2793C1.45327 32.9114 1.10838 33.9515 0.833699 34.8556C0.559017 35.7517 0.444054 36.5358 0.444054 36.5358L2.00965 36.7278C2.00965 36.7278 2.11321 36.0318 2.35542 35.2397C2.59588 34.4556 3.06538 33.6074 3.32602 33.4314C4.81702 32.4233 7.0645 32.7033 9.5656 33.0794C12.0579 33.4554 14.8311 33.9115 16.9724 32.4073C17.6744 31.9112 18.1922 31.2151 18.6047 30.439C19.0259 31.2792 19.6314 32.0072 20.3598 32.6393C19.4208 32.8554 18.6047 33.2394 17.8938 33.7035C16.7179 34.4796 15.7876 35.4397 14.8398 36.2238L15.8929 37.2959C16.595 36.7118 17.2356 36.1118 17.8763 35.5837C18.2361 36.1678 18.7451 36.6318 19.3155 36.9679C20.2282 37.5119 21.2637 37.792 22.2115 38L22.5801 36.6078C21.7025 36.4078 20.8249 36.1518 20.1843 35.7677C19.7016 35.4797 19.3418 35.1516 19.1312 34.6796C20.0176 34.1595 20.9566 33.8475 22.2378 33.9115C22.8082 34.2075 23.405 34.4716 24.0193 34.6956C26.3537 35.5357 28.9688 35.8477 31.2593 35.6557C32.6986 35.5277 34.1378 34.7756 35.419 33.8955C35.9982 34.3195 36.4721 34.8316 36.7968 35.3357C37.262 36.0558 37.3673 36.7518 37.262 37.0639L38.7538 37.5119C39.1049 36.5758 38.7714 35.5517 38.1571 34.5996C37.7797 34.0235 37.2883 33.4714 36.6828 32.9754C36.6915 32.9754 36.6915 32.9674 36.7003 32.9674C38.2799 31.7592 39.4471 30.5831 39.4471 30.5831L38.2887 29.6069C38.2887 29.6069 37.1654 30.7191 35.6823 31.8632C34.1904 33.0074 32.2773 34.1195 31.1189 34.2155C29.1005 34.3915 26.6784 34.1035 24.5985 33.3514C22.5274 32.6073 20.8249 31.4152 20.0439 29.847C19.8157 29.3909 20.1053 28.0867 20.667 26.9666C20.9302 26.4385 21.2111 25.9665 21.4392 25.6064C21.7727 25.7665 22.1501 25.9585 22.5713 26.1825C23.7122 26.7906 25.0197 27.6227 25.5638 28.2228C25.9675 28.6628 26.4941 29.711 26.8539 30.5991C27.2137 31.4952 27.4419 32.2393 27.4419 32.2393L28.9688 31.8552C28.9688 31.8552 28.7231 31.0551 28.337 30.103C28.0913 29.4709 27.7929 28.7828 27.4155 28.1668C27.7753 28.1188 28.2492 28.1188 28.7933 28.2148C29.864 28.4068 31.1452 28.8948 32.2159 29.6149L33.1461 28.4468C31.8736 27.6067 30.4256 27.0386 29.0917 26.8066C28.5915 26.7186 28.1 26.6626 27.6262 26.6786C27.1786 26.6866 26.7573 26.7586 26.38 26.9026C25.5463 26.1585 24.3967 25.4944 23.3787 24.9424C23.3085 24.9023 23.2383 24.8703 23.1681 24.8303H40V23.3902H0.684511Z" fill="#497B12"/>
</svg>
