<svg width="48" height="56" viewBox="0 0 48 56" fill="none" xmlns="http://www.w3.org/2000/svg">
<path d="M22.2857 0C21.8571 0 21.4286 0.470588 20.5714 1.41176V5.17647H15.3721C13.7143 3.29412 13.7143 3.29412 12 5.17647C10.2857 7.05882 10.2857 7.05882 12 8.94118C13.7143 10.8235 13.7143 10.8235 15.2968 8.94118H20.5714V12.7059H24V8.94118H29.2182C30.9114 10.8235 30.911 10.8235 32.6253 8.94118C34.3396 7.05882 34.3396 7.05882 32.6253 5.17647C30.911 3.29412 30.9114 3.29412 29.1429 5.17647H24V1.41176C23.1429 0.470588 22.7143 0 22.2857 0ZM0 9.17647V39.2941H3.42857V9.17647H0ZM6.85714 14.8235L5.14286 12.9412V35.5294L6.85714 33.6471V14.8235ZM22.2857 14.5882C18.8571 14.5882 17.1054 14.5882 17.0111 18.3529H8.57143V29.6471H15.4955C17.1429 31.5294 18.8571 33.4118 22.2857 33.4118C25.7143 33.4118 27.4286 31.5294 29.1429 29.6471C36 29.6471 36 29.6471 36 33.4118V37.1765H46.2857V29.6471C46.2857 22.1176 42.8571 18.3529 36 18.3529H27.4286C27.4661 14.5882 25.7143 14.5882 22.2857 14.5882ZM34.2857 39.0588V40.9412H48V39.0588H34.2857ZM41.1429 42.8235C41.1429 42.8235 36.9833 48.9012 37.7143 52.4706C38.1664 54.6777 39.0825 56 41.1429 56C43.2032 56 44.1193 54.6777 44.5714 52.4706C45.3025 48.9012 41.1429 42.8235 41.1429 42.8235Z" fill="#497B12"/>
</svg>
