<svg width="64" height="71" viewBox="0 0 64 71" fill="none" xmlns="http://www.w3.org/2000/svg">
<path d="M29.7143 0.625C29.1429 0.625 28.5714 1.21324 27.4286 2.38971V7.09559H20.4961C18.2857 4.74265 18.2857 4.74265 16 7.09559C13.7143 9.44853 13.7143 9.44853 16 11.8015C18.2857 14.1544 18.2857 14.1544 20.3957 11.8015H27.4286V16.5074H32V11.8015H38.9576C41.2151 14.1544 41.2147 14.1544 43.5004 11.8015C45.7861 9.44853 45.7861 9.44853 43.5004 7.09559C41.2147 4.74265 41.2151 4.74265 38.8571 7.09559H32V2.38971C30.8571 1.21324 30.2857 0.625 29.7143 0.625ZM0 12.0956V49.7426H4.57143V12.0956H0ZM9.14286 19.1544L6.85714 16.8015V45.0368L9.14286 42.6838V19.1544ZM29.7143 18.8603C25.1429 18.8603 22.8071 18.8603 22.6814 23.5662H11.4286V37.6838H20.6607C22.8571 40.0368 25.1429 42.3897 29.7143 42.3897C34.2857 42.3897 36.5714 40.0368 38.8571 37.6838C48 37.6838 48 37.6838 48 42.3897V47.0956H61.7143V37.6838C61.7143 28.2721 57.1429 23.5662 48 23.5662H36.5714C36.6214 18.8603 34.2857 18.8603 29.7143 18.8603ZM45.7143 49.4485V51.8015H64V49.4485H45.7143ZM54.8571 54.1544C54.8571 54.1544 49.311 61.7515 50.2857 66.2132C50.8886 68.9721 52.11 70.625 54.8571 70.625C57.6043 70.625 58.8257 68.9721 59.4286 66.2132C60.4033 61.7515 54.8571 54.1544 54.8571 54.1544Z" fill="#FDFDFD"/>
</svg>
