<svg width="48" height="40" viewBox="0 0 48 40" fill="none" xmlns="http://www.w3.org/2000/svg">
<path d="M15 18.9474C16.1819 18.9474 17.3522 18.7023 18.4442 18.2262C19.5361 17.7501 20.5282 17.0523 21.364 16.1726C22.1997 15.2929 22.8626 14.2485 23.3149 13.0991C23.7672 11.9497 24 10.7178 24 9.47368C24 8.22958 23.7672 6.99766 23.3149 5.84826C22.8626 4.69886 22.1997 3.65449 21.364 2.77478C20.5282 1.89506 19.5361 1.19724 18.4442 0.721141C17.3522 0.245044 16.1819 -2.62175e-08 15 0C12.6131 5.29486e-08 10.3239 0.998117 8.63604 2.77478C6.94821 4.55144 6 6.96111 6 9.47368C6 11.9863 6.94821 14.3959 8.63604 16.1726C10.3239 17.9493 12.6131 18.9474 15 18.9474ZM30.2 34.9874C31.726 35.4821 33.628 35.7895 36 35.7895C48 35.7895 48 27.8947 48 27.8947C48 26.6384 47.5259 25.4336 46.682 24.5453C45.8381 23.657 44.6935 23.1579 43.5 23.1579H30.188C31.3504 24.431 31.9985 26.129 31.996 27.8947V29.0632L31.99 29.2379C31.9476 29.941 31.8445 30.6386 31.682 31.3221C31.3731 32.6169 30.8737 33.8529 30.202 34.9853M43 11.5789C43 12.5466 42.8189 13.5047 42.4672 14.3987C42.1154 15.2927 41.5998 16.105 40.9497 16.7892C40.2997 17.4734 39.5281 18.0162 38.6788 18.3865C37.8295 18.7568 36.9193 18.9474 36 18.9474C35.0807 18.9474 34.1705 18.7568 33.3212 18.3865C32.4719 18.0162 31.7003 17.4734 31.0503 16.7892C30.4002 16.105 29.8846 15.2927 29.5328 14.3987C29.1811 13.5047 29 12.5466 29 11.5789C29 9.62472 29.7375 7.75053 31.0503 6.36869C32.363 4.98684 34.1435 4.21053 36 4.21053C37.8565 4.21053 39.637 4.98684 40.9497 6.36869C42.2625 7.75053 43 9.62472 43 11.5789ZM0 27.8947C0 26.6384 0.474106 25.4336 1.31802 24.5453C2.16193 23.657 3.30653 23.1579 4.5 23.1579H25.5C26.6935 23.1579 27.8381 23.657 28.682 24.5453C29.5259 25.4336 30 26.6384 30 27.8947V28.9474C30 28.9474 30 40 15 40C0 40 0 28.9474 0 28.9474V27.8947Z" fill="#497B12"/>
</svg>
